<svg width="400" height="400" viewBox="0 0 400 400" fill="none" xmlns="http://www.w3.org/2000/svg">
<g clip-path="url(#clip0_3326_8054)">
<g opacity="0.15">
<path d="M17.6577 58.5901C17.6577 58.5901 21.2955 58.1112 23.6265 57.8043M56.4547 53.4824C56.4547 53.4824 52.8168 53.9613 50.4859 54.2682M50.4859 54.2682C49.5094 46.8512 42.7052 41.6301 35.2881 42.6065C27.8711 43.583 22.65 50.3873 23.6265 57.8043M50.4859 54.2682C39.9966 55.6491 34.1157 56.4234 23.6265 57.8043M50.4859 54.2682C51.4624 61.6852 46.2413 68.4895 38.8242 69.466C31.4072 70.4424 24.6029 65.2213 23.6265 57.8043" stroke="#3B6667" stroke-width="3"/>
<path d="M-11.5581 143.127C-11.5581 143.127 -7.9203 142.648 -5.58935 142.341M27.2388 138.019C27.2388 138.019 23.601 138.498 21.2701 138.805M21.2701 138.805C20.2936 131.388 13.4893 126.167 6.07231 127.143C-1.34472 128.12 -6.56582 134.924 -5.58935 142.341M21.2701 138.805C10.7808 140.186 4.89991 140.96 -5.58935 142.341M21.2701 138.805C22.2466 146.222 17.0254 153.026 9.60842 154.003C2.19139 154.979 -4.61288 149.758 -5.58935 142.341" stroke="#3B6667" stroke-width="3"/>
<path d="M103.861 39.1721C103.861 39.1721 107.499 38.6932 109.83 38.3863M142.658 34.0644C142.658 34.0644 139.02 34.5434 136.689 34.8502M136.689 34.8502C135.713 27.4332 128.908 22.2121 121.491 23.1886C114.074 24.165 108.853 30.9693 109.83 38.3863M136.689 34.8502C126.2 36.2312 120.319 37.0054 109.83 38.3863M136.689 34.8502C137.665 42.2673 132.444 49.0715 125.027 50.048C117.61 51.0245 110.806 45.8034 109.83 38.3863" stroke="#3B6667" stroke-width="3"/>
<path d="M74.645 123.709C74.645 123.709 78.2828 123.23 80.6138 122.923M113.442 118.601C113.442 118.601 109.804 119.08 107.473 119.387M107.473 119.387C106.497 111.97 99.6925 106.749 92.2754 107.725C84.8584 108.702 79.6373 115.506 80.6138 122.923M107.473 119.387C96.9839 120.768 91.103 121.542 80.6138 122.923M107.473 119.387C108.45 126.804 103.229 133.608 95.8115 134.585C88.3945 135.561 81.5902 130.34 80.6138 122.923" stroke="#3B6667" stroke-width="3"/>
<path d="M45.4292 208.245C45.4292 208.245 49.067 207.766 51.398 207.46M84.2261 203.138C84.2261 203.138 80.5883 203.617 78.2574 203.923M78.2574 203.923C77.2809 196.506 70.4766 191.285 63.0596 192.262C55.6426 193.238 50.4215 200.043 51.398 207.46M78.2574 203.923C67.7681 205.304 61.8872 206.079 51.398 207.46M78.2574 203.923C79.2339 211.341 74.0128 218.145 66.5957 219.121C59.1787 220.098 52.3744 214.877 51.398 207.46" stroke="#3B6667" stroke-width="3"/>
<path d="M16.2134 292.782C16.2134 292.782 19.8512 292.303 22.1821 291.996M55.0103 287.675C55.0103 287.675 51.3725 288.153 49.0416 288.46M49.0416 288.46C48.0651 281.043 41.2608 275.822 33.8438 276.799C26.4268 277.775 21.2057 284.579 22.1821 291.996M49.0416 288.46C38.5523 289.841 32.6714 290.616 22.1821 291.996M49.0416 288.46C50.018 295.877 44.7969 302.682 37.3799 303.658C29.9629 304.635 23.1586 299.413 22.1821 291.996" stroke="#3B6667" stroke-width="3"/>
<path d="M-13.002 377.319C-13.002 377.319 -9.36415 376.84 -7.0332 376.533M25.795 372.211C25.795 372.211 22.1572 372.69 19.8262 372.997M19.8262 372.997C18.8498 365.58 12.0455 360.359 4.62846 361.335C-2.78857 362.312 -8.00967 369.116 -7.0332 376.533M19.8262 372.997C9.33697 374.378 3.45606 375.152 -7.0332 376.533M19.8262 372.997C20.8027 380.414 15.5816 387.218 8.16457 388.194C0.747544 389.171 -6.05673 383.95 -7.0332 376.533" stroke="#3B6667" stroke-width="3"/>
<path d="M180.466 69.4322C180.466 69.4322 184.104 68.9532 186.435 68.6464M219.263 64.3244C219.263 64.3244 215.625 64.8034 213.294 65.1102M213.294 65.1102C212.318 57.6932 205.513 52.4721 198.096 53.4486C190.679 54.4251 185.458 61.2293 186.435 68.6464M213.294 65.1102C202.805 66.4912 196.924 67.2654 186.435 68.6464M213.294 65.1102C214.27 72.5273 209.049 79.3315 201.632 80.308C194.215 81.2845 187.411 76.0634 186.435 68.6464" stroke="#3B6667" stroke-width="3"/>
<path d="M151.25 153.969C151.25 153.969 154.888 153.49 157.219 153.183M190.047 148.861C190.047 148.861 186.409 149.34 184.078 149.647M184.078 149.647C183.102 142.23 176.297 137.009 168.88 137.985C161.463 138.962 156.242 145.766 157.219 153.183M184.078 149.647C173.589 151.028 167.708 151.802 157.219 153.183M184.078 149.647C185.055 157.064 179.834 163.868 172.417 164.845C164.999 165.821 158.195 160.6 157.219 153.183" stroke="#3B6667" stroke-width="3"/>
<path d="M122.034 238.505C122.034 238.505 125.672 238.026 128.003 237.72M160.831 233.398C160.831 233.398 157.193 233.877 154.862 234.183M154.862 234.183C153.886 226.766 147.082 221.545 139.665 222.522C132.248 223.498 127.026 230.303 128.003 237.72M154.862 234.183C144.373 235.564 138.492 236.339 128.003 237.72M154.862 234.183C155.839 241.601 150.618 248.405 143.201 249.381C135.784 250.358 128.979 245.137 128.003 237.72" stroke="#3B6667" stroke-width="3"/>
<path d="M92.8188 323.042C92.8188 323.042 96.4567 322.563 98.7876 322.256M131.616 317.934C131.616 317.934 127.978 318.413 125.647 318.72M125.647 318.72C124.671 311.303 117.866 306.082 110.449 307.058C103.032 308.035 97.8111 314.839 98.7876 322.256M125.647 318.72C115.158 320.101 109.277 320.875 98.7876 322.256M125.647 318.72C126.624 326.137 121.402 332.941 113.985 333.918C106.568 334.894 99.7641 329.673 98.7876 322.256" stroke="#3B6667" stroke-width="3"/>
<path d="M63.603 407.579C63.603 407.579 67.2408 407.1 69.5718 406.793M102.4 402.471C102.4 402.471 98.7622 402.95 96.4312 403.257M96.4312 403.257C95.4547 395.84 88.6505 390.619 81.2334 391.595C73.8164 392.572 68.5953 399.376 69.5718 406.793M96.4312 403.257C85.942 404.638 80.061 405.412 69.5718 406.793M96.4312 403.257C97.4077 410.674 92.1866 417.478 84.7696 418.454C77.3525 419.431 70.5482 414.21 69.5718 406.793" stroke="#3B6667" stroke-width="3"/>
<path d="M266.669 50.0142C266.669 50.0142 270.307 49.5353 272.638 49.2284M305.466 44.9065C305.466 44.9065 301.828 45.3854 299.497 45.6923M299.497 45.6923C298.521 38.2752 291.716 33.0541 284.299 34.0306C276.882 35.0071 271.661 41.8114 272.638 49.2284M299.497 45.6923C289.008 47.0732 283.127 47.8474 272.638 49.2284M299.497 45.6923C300.474 53.1093 295.252 59.9136 287.835 60.89C280.418 61.8665 273.614 56.6454 272.638 49.2284" stroke="#3B6667" stroke-width="3"/>
<path d="M237.453 134.551C237.453 134.551 241.091 134.072 243.422 133.765M276.25 129.443C276.25 129.443 272.612 129.922 270.281 130.229M270.281 130.229C269.305 122.812 262.501 117.591 255.084 118.567C247.667 119.544 242.445 126.348 243.422 133.765M270.281 130.229C259.792 131.61 253.911 132.384 243.422 133.765M270.281 130.229C271.258 137.646 266.037 144.45 258.62 145.427C251.203 146.403 244.398 141.182 243.422 133.765" stroke="#3B6667" stroke-width="3"/>
<path d="M208.237 219.087C208.237 219.087 211.875 218.609 214.206 218.302M247.034 213.98C247.034 213.98 243.396 214.459 241.065 214.766M241.065 214.766C240.089 207.348 233.285 202.127 225.868 203.104C218.451 204.08 213.23 210.885 214.206 218.302M241.065 214.766C230.576 216.146 224.695 216.921 214.206 218.302M241.065 214.766C242.042 222.183 236.821 228.987 229.404 229.963C221.987 230.94 215.183 225.719 214.206 218.302" stroke="#3B6667" stroke-width="3"/>
<path d="M179.021 303.624C179.021 303.624 182.659 303.145 184.99 302.838M217.818 298.517C217.818 298.517 214.181 298.996 211.85 299.302M211.85 299.302C210.873 291.885 204.069 286.664 196.652 287.641C189.235 288.617 184.014 295.421 184.99 302.838M211.85 299.302C201.36 300.683 195.479 301.458 184.99 302.838M211.85 299.302C212.826 306.719 207.605 313.524 200.188 314.5C192.771 315.477 185.967 310.256 184.99 302.838" stroke="#3B6667" stroke-width="3"/>
<path d="M149.806 388.161C149.806 388.161 153.443 387.682 155.774 387.375M188.603 383.053C188.603 383.053 184.965 383.532 182.634 383.839M182.634 383.839C181.657 376.422 174.853 371.201 167.436 372.177C160.019 373.154 154.798 379.958 155.774 387.375M182.634 383.839C172.145 385.22 166.264 385.994 155.774 387.375M182.634 383.839C183.61 391.256 178.389 398.06 170.972 399.037C163.555 400.013 156.751 394.792 155.774 387.375" stroke="#3B6667" stroke-width="3"/>
<path d="M372.489 -4.26242C372.489 -4.26242 376.127 -4.74135 378.458 -5.04823M411.286 -9.37014C411.286 -9.37014 407.648 -8.89121 405.317 -8.58434M405.317 -8.58434C404.341 -16.0014 397.537 -21.2225 390.12 -20.246C382.703 -19.2695 377.482 -12.4653 378.458 -5.04823M405.317 -8.58434C394.828 -7.2034 388.947 -6.42916 378.458 -5.04823M405.317 -8.58434C406.294 -1.16731 401.073 5.63696 393.656 6.61343C386.239 7.5899 379.434 2.3688 378.458 -5.04823" stroke="#3B6667" stroke-width="3"/>
<path d="M343.274 80.2742C343.274 80.2742 346.912 79.7953 349.243 79.4884M382.071 75.1665C382.071 75.1665 378.433 75.6454 376.102 75.9523M376.102 75.9523C375.126 68.5353 368.321 63.3142 360.904 64.2906C353.487 65.2671 348.266 72.0714 349.243 79.4884M376.102 75.9523C365.613 77.3332 359.732 78.1075 349.243 79.4884M376.102 75.9523C377.079 83.3693 371.857 90.1736 364.44 91.1501C357.023 92.1265 350.219 86.9054 349.243 79.4884" stroke="#3B6667" stroke-width="3"/>
<path d="M314.058 164.811C314.058 164.811 317.696 164.332 320.027 164.025M352.855 159.703C352.855 159.703 349.217 160.182 346.886 160.489M346.886 160.489C345.91 153.072 339.106 147.851 331.689 148.827C324.271 149.804 319.05 156.608 320.027 164.025M346.886 160.489C336.397 161.87 330.516 162.644 320.027 164.025M346.886 160.489C347.863 167.906 342.642 174.71 335.225 175.687C327.808 176.663 321.003 171.442 320.027 164.025" stroke="#3B6667" stroke-width="3"/>
<path d="M284.842 249.347C284.842 249.347 288.48 248.869 290.811 248.562M323.639 244.24C323.639 244.24 320.001 244.719 317.67 245.026M317.67 245.026C316.694 237.608 309.89 232.387 302.473 233.364C295.056 234.34 289.835 241.145 290.811 248.562M317.67 245.026C307.181 246.406 301.3 247.181 290.811 248.562M317.67 245.026C318.647 252.443 313.426 259.247 306.009 260.223C298.592 261.2 291.788 255.979 290.811 248.562" stroke="#3B6667" stroke-width="3"/>
<path d="M255.626 333.884C255.626 333.884 259.264 333.405 261.595 333.098M294.423 328.776C294.423 328.776 290.786 329.255 288.455 329.562M288.455 329.562C287.478 322.145 280.674 316.924 273.257 317.9C265.84 318.877 260.619 325.681 261.595 333.098M288.455 329.562C277.965 330.943 272.084 331.717 261.595 333.098M288.455 329.562C289.431 336.979 284.21 343.783 276.793 344.76C269.376 345.736 262.572 340.515 261.595 333.098" stroke="#3B6667" stroke-width="3"/>
<path d="M226.411 418.421C226.411 418.421 230.049 417.942 232.38 417.635M265.208 413.313C265.208 413.313 261.57 413.792 259.239 414.099M259.239 414.099C258.263 406.682 251.459 401.461 244.042 402.437C236.625 403.414 231.403 410.218 232.38 417.635M259.239 414.099C248.75 415.48 242.869 416.254 232.38 417.635M259.239 414.099C260.216 421.516 254.995 428.32 247.578 429.297C240.161 430.273 233.356 425.052 232.38 417.635" stroke="#3B6667" stroke-width="3"/>
<path d="M400.261 145.393C400.261 145.393 403.899 144.914 406.23 144.607M439.058 140.285C439.058 140.285 435.42 140.764 433.089 141.071M433.089 141.071C432.113 133.654 425.309 128.433 417.892 129.409C410.475 130.386 405.254 137.19 406.23 144.607M433.089 141.071C422.6 142.452 416.719 143.226 406.23 144.607M433.089 141.071C434.066 148.488 428.845 155.292 421.428 156.269C414.011 157.245 407.206 152.024 406.23 144.607" stroke="#3B6667" stroke-width="3"/>
<path d="M371.045 229.93C371.045 229.93 374.683 229.451 377.014 229.144M409.842 224.822C409.842 224.822 406.205 225.301 403.874 225.608M403.874 225.608C402.897 218.191 396.093 212.97 388.676 213.946C381.259 214.923 376.038 221.727 377.014 229.144M403.874 225.608C393.384 226.989 387.503 227.763 377.014 229.144M403.874 225.608C404.85 233.025 399.629 239.829 392.212 240.806C384.795 241.782 377.991 236.561 377.014 229.144" stroke="#3B6667" stroke-width="3"/>
<path d="M341.83 314.466C341.83 314.466 345.467 313.987 347.798 313.681M380.627 309.359C380.627 309.359 376.989 309.838 374.658 310.144M374.658 310.144C373.681 302.727 366.877 297.506 359.46 298.483C352.043 299.459 346.822 306.264 347.798 313.681M374.658 310.144C364.169 311.525 358.288 312.3 347.798 313.681M374.658 310.144C375.634 317.561 370.413 324.366 362.996 325.342C355.579 326.319 348.775 321.098 347.798 313.681" stroke="#3B6667" stroke-width="3"/>
<path d="M312.614 399.003C312.614 399.003 316.252 398.524 318.583 398.217M351.411 393.895C351.411 393.895 347.773 394.374 345.442 394.681M345.442 394.681C344.465 387.264 337.661 382.043 330.244 383.019C322.827 383.996 317.606 390.8 318.583 398.217M345.442 394.681C334.953 396.062 329.072 396.836 318.583 398.217M345.442 394.681C346.418 402.098 341.197 408.902 333.78 409.879C326.363 410.855 319.559 405.634 318.583 398.217" stroke="#3B6667" stroke-width="3"/>
</g>
</g>
<defs>
<clipPath id="clip0_3326_8054">
<rect width="400" height="400" fill="white"/>
</clipPath>
</defs>
</svg>
