<svg width="400" height="400" viewBox="0 0 400 400" fill="none" xmlns="http://www.w3.org/2000/svg">
<g clip-path="url(#clip0_3326_8202)">
<g opacity="0.15">
<path d="M49.2037 40.2052L37.0561 56.0362M24.9085 71.8672L37.0561 56.0362M37.0561 56.0362L52.8871 68.1838M37.0561 56.0362L21.2251 43.8887" stroke="#1B6C47" stroke-width="3"/>
<path d="M19.9879 124.742L7.84029 140.573M-4.30727 156.404L7.84029 140.573M7.84029 140.573L23.6713 152.721M7.84029 140.573L-7.99072 128.425" stroke="#1B6C47" stroke-width="3"/>
<path d="M135.407 20.7874L123.259 36.6184M111.112 52.4494L123.259 36.6184M123.259 36.6184L139.09 48.766M123.259 36.6184L107.428 24.4708" stroke="#1B6C47" stroke-width="3"/>
<path d="M106.191 105.324L94.0434 121.155M81.8959 136.986L94.0434 121.155M94.0434 121.155L109.874 133.303M94.0434 121.155L78.2124 109.007" stroke="#1B6C47" stroke-width="3"/>
<path d="M76.9752 189.861L64.8276 205.692M52.68 221.523L64.8276 205.692M64.8276 205.692L80.6586 217.839M64.8276 205.692L48.9966 193.544" stroke="#1B6C47" stroke-width="3"/>
<path d="M47.7593 274.397L35.6118 290.228M23.4642 306.059L35.6118 290.228M35.6118 290.228L51.4428 302.376M35.6118 290.228L19.7808 278.081" stroke="#1B6C47" stroke-width="3"/>
<path d="M18.544 358.934L6.39644 374.765M-5.75112 390.596L6.39644 374.765M6.39644 374.765L22.2275 386.913M6.39644 374.765L-9.43457 362.617" stroke="#1B6C47" stroke-width="3"/>
<path d="M212.012 51.0474L199.864 66.8784M187.717 82.7094L199.864 66.8784M199.864 66.8784L215.695 79.026M199.864 66.8784L184.033 54.7308" stroke="#1B6C47" stroke-width="3"/>
<path d="M182.796 135.584L170.648 151.415M158.501 167.246L170.648 151.415M170.648 151.415L186.479 163.563M170.648 151.415L154.817 139.267" stroke="#1B6C47" stroke-width="3"/>
<path d="M153.58 220.121L141.433 235.952M129.285 251.783L141.433 235.952M141.433 235.952L157.264 248.099M141.433 235.952L125.602 223.804" stroke="#1B6C47" stroke-width="3"/>
<path d="M124.365 304.657L112.217 320.488M100.07 336.319L112.217 320.488M112.217 320.488L128.048 332.636M112.217 320.488L96.3862 308.341" stroke="#1B6C47" stroke-width="3"/>
<path d="M95.149 389.194L83.0014 405.025M70.8539 420.856L83.0014 405.025M83.0014 405.025L98.8324 417.172M83.0014 405.025L67.1704 392.877" stroke="#1B6C47" stroke-width="3"/>
<path d="M298.215 31.6294L286.067 47.4604M273.92 63.2914L286.067 47.4604M286.067 47.4604L301.898 59.608M286.067 47.4604L270.236 35.3129" stroke="#1B6C47" stroke-width="3"/>
<path d="M268.999 116.166L256.852 131.997M244.704 147.828L256.852 131.997M256.852 131.997L272.683 144.145M256.852 131.997L241.021 119.849" stroke="#1B6C47" stroke-width="3"/>
<path d="M239.783 200.703L227.636 216.534M215.488 232.365L227.636 216.534M227.636 216.534L243.467 228.681M227.636 216.534L211.805 204.386" stroke="#1B6C47" stroke-width="3"/>
<path d="M210.567 285.239L198.42 301.07M186.272 316.901L198.42 301.07M198.42 301.07L214.251 313.218M198.42 301.07L182.589 288.923" stroke="#1B6C47" stroke-width="3"/>
<path d="M181.352 369.776L169.204 385.607M157.056 401.438L169.204 385.607M169.204 385.607L185.035 397.755M169.204 385.607L153.373 373.459" stroke="#1B6C47" stroke-width="3"/>
<path d="M404.035 -22.6472L391.888 -6.81618M379.74 9.01483L391.888 -6.81618M391.888 -6.81618L407.719 5.33138M391.888 -6.81618L376.057 -18.9637" stroke="#1B6C47" stroke-width="3"/>
<path d="M374.82 61.8894L362.672 77.7204M350.525 93.5515L362.672 77.7204M362.672 77.7204L378.503 89.868M362.672 77.7204L346.841 65.5729" stroke="#1B6C47" stroke-width="3"/>
<path d="M345.604 146.426L333.457 162.257M321.309 178.088L333.457 162.257M333.457 162.257L349.288 174.405M333.457 162.257L317.625 150.109" stroke="#1B6C47" stroke-width="3"/>
<path d="M316.388 230.963L304.241 246.794M292.093 262.625L304.241 246.794M304.241 246.794L320.072 258.941M304.241 246.794L288.41 234.646" stroke="#1B6C47" stroke-width="3"/>
<path d="M287.172 315.499L275.025 331.33M262.877 347.161L275.025 331.33M275.025 331.33L290.856 343.478M275.025 331.33L259.194 319.183" stroke="#1B6C47" stroke-width="3"/>
<path d="M257.957 400.036L245.81 415.867M233.662 431.698L245.81 415.867M245.81 415.867L261.641 428.014M245.81 415.867L229.979 403.719" stroke="#1B6C47" stroke-width="3"/>
<path d="M402.591 211.545L390.444 227.376M378.296 243.207L390.444 227.376M390.444 227.376L406.275 239.523M390.444 227.376L374.613 215.228" stroke="#1B6C47" stroke-width="3"/>
<path d="M373.376 296.081L361.228 311.912M349.08 327.743L361.228 311.912M361.228 311.912L377.059 324.06M361.228 311.912L345.397 299.765" stroke="#1B6C47" stroke-width="3"/>
<path d="M344.16 380.618L332.012 396.449M319.865 412.28L332.012 396.449M332.012 396.449L347.843 408.597M332.012 396.449L316.181 384.302" stroke="#1B6C47" stroke-width="3"/>
</g>
</g>
<defs>
<clipPath id="clip0_3326_8202">
<rect width="400" height="400" fill="white"/>
</clipPath>
</defs>
</svg>
