<svg width="400" height="400" viewBox="0 0 400 400" fill="none" xmlns="http://www.w3.org/2000/svg">
<g clip-path="url(#clip0_3326_8128)">
<g opacity="0.15">
<path d="M36.7491 65.6707C36.1809 61.3545 32.2213 58.3162 27.9052 58.8844C24.7749 59.2965 22.3168 61.4924 21.419 64.3144M36.7491 65.6707C37.3174 69.9868 34.2791 73.9464 29.9629 74.5146C25.6467 75.0829 21.6872 72.0446 21.1189 67.7284C20.9628 66.5425 21.0789 65.3835 21.419 64.3144M36.7491 65.6707L35.9775 59.8093M21.419 64.3144C22.1402 61.9369 24.2046 55.6803 26.6925 49.6738C29.1805 43.6672 34.1769 46.1329 34.5077 48.6449L35.3895 55.3436M35.3895 55.3436L35.6835 57.5764L35.9775 59.8093M35.3895 55.3436L43.4838 54.2779M35.9775 59.8093L44.0717 58.7437M44.8434 64.605C44.2751 60.2889 47.3134 56.3293 51.6296 55.761C54.7598 55.3489 57.7025 56.8338 59.3001 59.3273M44.8434 64.605C45.4116 68.9212 49.3712 71.9595 53.6873 71.3913C58.0035 70.823 61.0418 66.8634 60.4736 62.5473C60.3174 61.3614 59.9053 60.2719 59.3001 59.3273M44.8434 64.605L44.0717 58.7437M59.3001 59.3273C57.9881 57.2174 54.3748 51.7083 50.417 46.5504C46.4592 41.3925 42.2712 45.0673 42.6019 47.5793L43.4838 54.2779M43.4838 54.2779L43.7777 56.5108L44.0717 58.7437M32.8416 66.1851C32.5575 64.027 30.5777 62.5079 28.4196 62.792C26.2615 63.0761 24.7424 65.0559 25.0265 67.214C25.3106 69.3721 27.2904 70.8912 29.4485 70.6071C31.6066 70.323 33.1257 68.3432 32.8416 66.1851ZM48.7509 64.0906C48.4668 61.9325 49.9859 59.9527 52.144 59.6686C54.3021 59.3845 56.2819 60.9036 56.566 63.0617C56.8501 65.2198 55.331 67.1996 53.1729 67.4837C51.0148 67.7678 49.035 66.2487 48.7509 64.0906Z" stroke="#7A5800" stroke-width="2.49"/>
<path d="M7.53332 150.207C6.96508 145.891 3.0055 142.853 -1.31067 143.421C-4.44092 143.833 -6.89905 146.029 -7.79677 148.851M7.53332 150.207C8.10155 154.523 5.06325 158.483 0.747089 159.051C-3.56907 159.619 -7.52866 156.581 -8.09689 152.265C-8.25302 151.079 -8.13688 149.92 -7.79677 148.851M7.53332 150.207L6.76166 144.346M-7.79677 148.851C-7.0756 146.474 -5.01125 140.217 -2.52327 134.21C-0.0352911 128.204 4.96112 130.67 5.29183 133.182L6.17373 139.88M6.17373 139.88L6.46769 142.113L6.76166 144.346M6.17373 139.88L14.2679 138.815M6.76166 144.346L14.8559 143.28M15.6275 149.142C15.0593 144.825 18.0976 140.866 22.4138 140.298C25.544 139.886 28.4867 141.37 30.0842 143.864M15.6275 149.142C16.1958 153.458 20.1554 156.496 24.4715 155.928C28.7877 155.36 31.826 151.4 31.2577 147.084C31.1016 145.898 30.6895 144.809 30.0842 143.864M15.6275 149.142L14.8559 143.28M30.0842 143.864C28.7723 141.754 25.159 136.245 21.2012 131.087C17.2433 125.929 13.0553 129.604 13.386 132.116L14.2679 138.815M14.2679 138.815L14.5619 141.047L14.8559 143.28M3.62576 150.722C3.34165 148.564 1.36185 147.044 -0.796228 147.329C-2.95431 147.613 -4.47346 149.593 -4.18934 151.751C-3.90522 153.909 -1.92543 155.428 0.23265 155.144C2.39073 154.86 3.90988 152.88 3.62576 150.722ZM19.5351 148.627C19.251 146.469 20.7701 144.489 22.9282 144.205C25.0863 143.921 27.0661 145.44 27.3502 147.598C27.6343 149.756 26.1152 151.736 23.9571 152.02C21.799 152.304 19.8192 150.785 19.5351 148.627Z" stroke="#7A5800" stroke-width="2.49"/>
<path d="M-21.682 234.744C-22.2502 230.428 -26.2098 227.389 -30.526 227.958C-33.6563 228.37 -36.1144 230.566 -37.0121 233.388M-21.682 234.744C-21.1138 239.06 -24.1521 243.02 -28.4682 243.588C-32.7844 244.156 -36.744 241.118 -37.3122 236.802C-37.4684 235.616 -37.3522 234.457 -37.0121 233.388M-21.682 234.744L-22.4537 228.883M-37.0121 233.388C-36.2909 231.01 -34.2266 224.754 -31.7386 218.747C-29.2506 212.74 -24.2542 215.206 -23.9235 217.718L-23.0416 224.417M-23.0416 224.417L-22.7476 226.65L-22.4537 228.883M-23.0416 224.417L-14.9474 223.351M-22.4537 228.883L-14.3595 227.817M-13.5878 233.678C-14.156 229.362 -11.1177 225.403 -6.80157 224.834C-3.67132 224.422 -0.728618 225.907 0.868902 228.4M-13.5878 233.678C-13.0196 237.994 -9.05998 241.033 -4.74382 240.464C-0.427653 239.896 2.61064 235.937 2.04241 231.621C1.88628 230.435 1.47413 229.345 0.868902 228.4M-13.5878 233.678L-14.3595 227.817M0.868902 228.4C-0.443038 226.291 -4.05637 220.782 -8.01418 215.624C-11.972 210.466 -16.16 214.141 -15.8293 216.653L-14.9474 223.351M-14.9474 223.351L-14.6534 225.584L-14.3595 227.817M-25.5896 235.258C-25.8737 233.1 -27.8535 231.581 -30.0116 231.865C-32.1696 232.149 -33.6888 234.129 -33.4047 236.287C-33.1206 238.445 -31.1408 239.964 -28.9827 239.68C-26.8246 239.396 -25.3055 237.416 -25.5896 235.258ZM-9.68025 233.164C-9.96436 231.006 -8.44522 229.026 -6.28713 228.742C-4.12905 228.458 -2.14926 229.977 -1.86514 232.135C-1.58103 234.293 -3.10017 236.273 -5.25826 236.557C-7.41634 236.841 -9.39613 235.322 -9.68025 233.164Z" stroke="#7A5800" stroke-width="2.49"/>
<path d="M122.952 46.2527C122.384 41.9365 118.424 38.8982 114.108 39.4665C110.978 39.8786 108.52 42.0744 107.622 44.8964M122.952 46.2527C123.52 50.5688 120.482 54.5284 116.166 55.0967C111.85 55.6649 107.89 52.6266 107.322 48.3104C107.166 47.1245 107.282 45.9655 107.622 44.8964M122.952 46.2527L122.181 40.3914M107.622 44.8964C108.343 42.5189 110.408 36.2623 112.896 30.2558C115.384 24.2493 120.38 26.7149 120.711 29.2269L121.593 35.9256M121.593 35.9256L121.887 38.1585L122.181 40.3914M121.593 35.9256L129.687 34.86M122.181 40.3914L130.275 39.3257M131.046 45.1871C130.478 40.8709 133.517 36.9113 137.833 36.3431C140.963 35.931 143.906 37.4158 145.503 39.9093M131.046 45.1871C131.615 49.5032 135.574 52.5415 139.89 51.9733C144.207 51.4051 147.245 47.4455 146.677 43.1293C146.521 41.9434 146.108 40.854 145.503 39.9093M131.046 45.1871L130.275 39.3257M145.503 39.9093C144.191 37.7995 140.578 32.2903 136.62 27.1324C132.662 21.9745 128.474 25.6493 128.805 28.1613L129.687 34.86M129.687 34.86L129.981 37.0928L130.275 39.3257M119.045 46.7671C118.761 44.609 116.781 43.0899 114.623 43.374C112.465 43.6581 110.945 45.6379 111.23 47.796C111.514 49.9541 113.494 51.4732 115.652 51.1891C117.81 50.905 119.329 48.9252 119.045 46.7671ZM134.954 44.6726C134.67 42.5145 136.189 40.5347 138.347 40.2506C140.505 39.9665 142.485 41.4857 142.769 43.6437C143.053 45.8018 141.534 47.7816 139.376 48.0657C137.218 48.3499 135.238 46.8307 134.954 44.6726Z" stroke="#7A5800" stroke-width="2.49"/>
<path d="M93.7364 130.789C93.1682 126.473 89.2086 123.435 84.8925 124.003C81.7622 124.415 79.3041 126.611 78.4064 129.433M93.7364 130.789C94.3047 135.105 91.2664 139.065 86.9502 139.633C82.6341 140.202 78.6745 137.163 78.1062 132.847C77.9501 131.661 78.0662 130.502 78.4064 129.433M93.7364 130.789L92.9648 124.928M78.4064 129.433C79.1275 127.056 81.1919 120.799 83.6799 114.792C86.1678 108.786 91.1642 111.252 91.495 113.764L92.3769 120.462M92.3769 120.462L92.6708 122.695L92.9648 124.928M92.3769 120.462L100.471 119.397M92.9648 124.928L101.059 123.862M101.831 129.724C101.262 125.408 104.301 121.448 108.617 120.88C111.747 120.468 114.69 121.952 116.287 124.446M101.831 129.724C102.399 134.04 106.358 137.078 110.675 136.51C114.991 135.942 118.029 131.982 117.461 127.666C117.305 126.48 116.893 125.391 116.287 124.446M101.831 129.724L101.059 123.862M116.287 124.446C114.975 122.336 111.362 116.827 107.404 111.669C103.446 106.511 99.2585 110.186 99.5892 112.698L100.471 119.397M100.471 119.397L100.765 121.629L101.059 123.862M89.8289 131.304C89.5448 129.146 87.565 127.627 85.4069 127.911C83.2488 128.195 81.7297 130.175 82.0138 132.333C82.2979 134.491 84.2777 136.01 86.4358 135.726C88.5939 135.442 90.113 133.462 89.8289 131.304ZM105.738 129.209C105.454 127.051 106.973 125.071 109.131 124.787C111.289 124.503 113.269 126.022 113.553 128.18C113.837 130.338 112.318 132.318 110.16 132.602C108.002 132.886 106.022 131.367 105.738 129.209Z" stroke="#7A5800" stroke-width="2.49"/>
<path d="M64.5206 215.326C63.9524 211.01 59.9928 207.971 55.6766 208.54C52.5464 208.952 50.0883 211.148 49.1905 213.97M64.5206 215.326C65.0889 219.642 62.0506 223.602 57.7344 224.17C53.4182 224.738 49.4586 221.7 48.8904 217.384C48.7343 216.198 48.8504 215.039 49.1905 213.97M64.5206 215.326L63.749 209.465M49.1905 213.97C49.9117 211.592 51.976 205.336 54.464 199.329C56.952 193.323 61.9484 195.788 62.2791 198.3L63.161 204.999M63.161 204.999L63.455 207.232L63.749 209.465M63.161 204.999L71.2552 203.933M63.749 209.465L71.8432 208.399M72.6148 214.26C72.0466 209.944 75.0849 205.985 79.4011 205.416C82.5313 205.004 85.474 206.489 87.0715 208.983M72.6148 214.26C73.1831 218.576 77.1427 221.615 81.4588 221.047C85.775 220.478 88.8133 216.519 88.245 212.203C88.0889 211.017 87.6768 209.927 87.0715 208.983M72.6148 214.26L71.8432 208.399M87.0715 208.983C85.7596 206.873 82.1463 201.364 78.1885 196.206C74.2306 191.048 70.0426 194.723 70.3734 197.235L71.2552 203.933M71.2552 203.933L71.5492 206.166L71.8432 208.399M60.6131 215.84C60.329 213.682 58.3492 212.163 56.1911 212.447C54.033 212.731 52.5138 214.711 52.798 216.869C53.0821 219.027 55.0619 220.546 57.22 220.262C59.378 219.978 60.8972 217.998 60.6131 215.84ZM76.5224 213.746C76.2383 211.588 77.7574 209.608 79.9155 209.324C82.0736 209.04 84.0534 210.559 84.3375 212.717C84.6216 214.875 83.1025 216.855 80.9444 217.139C78.7863 217.423 76.8065 215.904 76.5224 213.746Z" stroke="#7A5800" stroke-width="2.49"/>
<path d="M35.3048 299.863C34.7366 295.547 30.777 292.508 26.4608 293.077C23.3306 293.489 20.8724 295.685 19.9747 298.507M35.3048 299.863C35.873 304.179 32.8347 308.139 28.5186 308.707C24.2024 309.275 20.2428 306.237 19.6746 301.921C19.5185 300.735 19.6346 299.576 19.9747 298.507M35.3048 299.863L34.5331 294.001M19.9747 298.507C20.6959 296.129 22.7602 289.872 25.2482 283.866C27.7362 277.859 32.7326 280.325 33.0633 282.837L33.9452 289.536M33.9452 289.536L34.2392 291.769L34.5331 294.001M33.9452 289.536L42.0394 288.47M34.5331 294.001L42.6274 292.936M43.399 298.797C42.8308 294.481 45.8691 290.521 50.1852 289.953C53.3155 289.541 56.2582 291.026 57.8557 293.519M43.399 298.797C43.9673 303.113 47.9268 306.152 52.243 305.583C56.5592 305.015 59.5975 301.056 59.0292 296.739C58.8731 295.554 58.4609 294.464 57.8557 293.519M43.399 298.797L42.6274 292.936M57.8557 293.519C56.5438 291.41 52.9304 285.9 48.9726 280.743C45.0148 275.585 40.8268 279.259 41.1575 281.771L42.0394 288.47M42.0394 288.47L42.3334 290.703L42.6274 292.936M31.3972 300.377C31.1131 298.219 29.1333 296.7 26.9753 296.984C24.8172 297.268 23.298 299.248 23.5821 301.406C23.8663 303.564 25.8461 305.083 28.0041 304.799C30.1622 304.515 31.6814 302.535 31.3972 300.377ZM47.3066 298.283C47.0225 296.125 48.5416 294.145 50.6997 293.861C52.8578 293.577 54.8376 295.096 55.1217 297.254C55.4058 299.412 53.8866 301.392 51.7286 301.676C49.5705 301.96 47.5907 300.441 47.3066 298.283Z" stroke="#7A5800" stroke-width="2.49"/>
<path d="M6.08947 384.399C5.52123 380.083 1.56165 377.045 -2.75451 377.613C-5.88477 378.025 -8.3429 380.221 -9.24062 383.043M6.08947 384.399C6.6577 388.716 3.61941 392.675 -0.696758 393.243C-5.01292 393.812 -8.97251 390.773 -9.54074 386.457C-9.69687 385.271 -9.58073 384.112 -9.24062 383.043M6.08947 384.399L5.31781 378.538M-9.24062 383.043C-8.51945 380.666 -6.4551 374.409 -3.96712 368.403C-1.47914 362.396 3.51727 364.862 3.84798 367.374L4.72988 374.072M4.72988 374.072L5.02384 376.305L5.31781 378.538M4.72988 374.072L12.8241 373.007M5.31781 378.538L13.412 377.472M14.1837 383.334C13.6155 379.018 16.6537 375.058 20.9699 374.49C24.1002 374.078 27.0429 375.563 28.6404 378.056M14.1837 383.334C14.7519 387.65 18.7115 390.688 23.0277 390.12C27.3438 389.552 30.3821 385.592 29.8139 381.276C29.6578 380.09 29.2456 379.001 28.6404 378.056M14.1837 383.334L13.412 377.472M28.6404 378.056C27.3284 375.946 23.7151 370.437 19.7573 365.279C15.7995 360.121 11.6115 363.796 11.9422 366.308L12.8241 373.007M12.8241 373.007L13.1181 375.24L13.412 377.472M2.18192 384.914C1.8978 382.756 -0.0819936 381.237 -2.24008 381.521C-4.39816 381.805 -5.91731 383.785 -5.63319 385.943C-5.34907 388.101 -3.36928 389.62 -1.2112 389.336C0.946884 389.052 2.46603 387.072 2.18192 384.914ZM18.0912 382.819C17.8071 380.661 19.3263 378.681 21.4844 378.397C23.6424 378.113 25.6222 379.632 25.9063 381.79C26.1905 383.949 24.6713 385.928 22.5132 386.212C20.3551 386.497 18.3754 384.977 18.0912 382.819Z" stroke="#7A5800" stroke-width="2.49"/>
<path d="M228.773 -8.02393C228.205 -12.3401 224.245 -15.3784 219.929 -14.8102C216.799 -14.398 214.341 -12.2022 213.443 -9.38019M228.773 -8.02393C229.341 -3.70776 226.303 0.251822 221.987 0.820056C217.671 1.38829 213.711 -1.65001 213.143 -5.96617C212.987 -7.15208 213.103 -8.31107 213.443 -9.38019M228.773 -8.02393L228.001 -13.8853M213.443 -9.38019C214.164 -11.7577 216.228 -18.0143 218.716 -24.0208C221.204 -30.0273 226.201 -27.5617 226.532 -25.0497L227.413 -18.351M227.413 -18.351L227.707 -16.1181L228.001 -13.8853M227.413 -18.351L235.508 -19.4167M228.001 -13.8853L236.096 -14.9509M236.867 -9.08955C236.299 -13.4057 239.337 -17.3653 243.654 -17.9335C246.784 -18.3456 249.726 -16.8608 251.324 -14.3673M236.867 -9.08955C237.436 -4.77339 241.395 -1.73509 245.711 -2.30332C250.027 -2.87156 253.066 -6.83114 252.497 -11.1473C252.341 -12.3332 251.929 -13.4227 251.324 -14.3673M236.867 -9.08955L236.096 -14.9509M251.324 -14.3673C250.012 -16.4771 246.399 -21.9863 242.441 -27.1442C238.483 -32.3021 234.295 -28.6273 234.626 -26.1153L235.508 -19.4167M235.508 -19.4167L235.802 -17.1838L236.096 -14.9509M224.866 -7.50949C224.581 -9.66757 222.602 -11.1867 220.444 -10.9026C218.285 -10.6185 216.766 -8.63869 217.05 -6.48061C217.335 -4.32253 219.314 -2.80338 221.472 -3.0875C223.63 -3.37161 225.15 -5.35141 224.866 -7.50949ZM240.775 -9.60399C240.491 -11.7621 242.01 -13.7419 244.168 -14.026C246.326 -14.3101 248.306 -12.7909 248.59 -10.6329C248.874 -8.47479 247.355 -6.49499 245.197 -6.21088C243.039 -5.92676 241.059 -7.44591 240.775 -9.60399Z" stroke="#7A5800" stroke-width="2.49"/>
<path d="M199.557 76.5127C198.989 72.1965 195.029 69.1582 190.713 69.7265C187.583 70.1386 185.125 72.3344 184.227 75.1564M199.557 76.5127C200.125 80.8289 197.087 84.7884 192.771 85.3567C188.455 85.9249 184.495 82.8866 183.927 78.5705C183.771 77.3845 183.887 76.2256 184.227 75.1564M199.557 76.5127L198.786 70.6514M184.227 75.1564C184.948 72.7789 187.013 66.5223 189.501 60.5158C191.989 54.5093 196.985 56.9749 197.316 59.4869L198.198 66.1856M198.198 66.1856L198.492 68.4185L198.786 70.6514M198.198 66.1856L206.292 65.12M198.786 70.6514L206.88 69.5857M207.651 75.4471C207.083 71.1309 210.122 67.1713 214.438 66.6031C217.568 66.191 220.511 67.6758 222.108 70.1693M207.651 75.4471C208.22 79.7632 212.179 82.8015 216.495 82.2333C220.812 81.6651 223.85 77.7055 223.282 73.3893C223.126 72.2034 222.713 71.114 222.108 70.1693M207.651 75.4471L206.88 69.5857M222.108 70.1693C220.796 68.0595 217.183 62.5503 213.225 57.3924C209.267 52.2345 205.079 55.9093 205.41 58.4213L206.292 65.12M206.292 65.12L206.586 67.3529L206.88 69.5857M195.65 77.0271C195.366 74.8691 193.386 73.3499 191.228 73.634C189.07 73.9181 187.55 75.8979 187.835 78.056C188.119 80.2141 190.098 81.7332 192.257 81.4491C194.415 81.165 195.934 79.1852 195.65 77.0271ZM211.559 74.9326C211.275 72.7746 212.794 70.7948 214.952 70.5106C217.11 70.2265 219.09 71.7457 219.374 73.9038C219.658 76.0618 218.139 78.0416 215.981 78.3257C213.823 78.6099 211.843 77.0907 211.559 74.9326Z" stroke="#7A5800" stroke-width="2.49"/>
<path d="M170.341 161.049C169.773 156.733 165.814 153.695 161.497 154.263C158.367 154.675 155.909 156.871 155.011 159.693M170.341 161.049C170.91 165.365 167.871 169.325 163.555 169.893C159.239 170.462 155.279 167.423 154.711 163.107C154.555 161.921 154.671 160.762 155.011 159.693M170.341 161.049L169.57 155.188M155.011 159.693C155.733 157.316 157.797 151.059 160.285 145.052C162.773 139.046 167.769 141.512 168.1 144.024L168.982 150.722M168.982 150.722L169.276 152.955L169.57 155.188M168.982 150.722L177.076 149.657M169.57 155.188L177.664 154.122M178.436 159.984C177.867 155.668 180.906 151.708 185.222 151.14C188.352 150.728 191.295 152.212 192.892 154.706M178.436 159.984C179.004 164.3 182.963 167.338 187.28 166.77C191.596 166.202 194.634 162.242 194.066 157.926C193.91 156.74 193.498 155.651 192.892 154.706M178.436 159.984L177.664 154.122M192.892 154.706C191.58 152.596 187.967 147.087 184.009 141.929C180.051 136.771 175.863 140.446 176.194 142.958L177.076 149.657M177.076 149.657L177.37 151.889L177.664 154.122M166.434 161.564C166.15 159.406 164.17 157.887 162.012 158.171C159.854 158.455 158.335 160.435 158.619 162.593C158.903 164.751 160.883 166.27 163.041 165.986C165.199 165.702 166.718 163.722 166.434 161.564ZM182.343 159.469C182.059 157.311 183.578 155.331 185.736 155.047C187.894 154.763 189.874 156.282 190.158 158.44C190.442 160.598 188.923 162.578 186.765 162.862C184.607 163.146 182.627 161.627 182.343 159.469Z" stroke="#7A5800" stroke-width="2.49"/>
<path d="M141.126 245.586C140.557 241.27 136.598 238.231 132.282 238.8C129.151 239.212 126.693 241.408 125.796 244.23M141.126 245.586C141.694 249.902 138.656 253.862 134.339 254.43C130.023 254.998 126.064 251.96 125.495 247.644C125.339 246.458 125.455 245.299 125.796 244.23M141.126 245.586L140.354 239.725M125.796 244.23C126.517 241.852 128.581 235.596 131.069 229.589C133.557 223.583 138.553 226.048 138.884 228.56L139.766 235.259M139.766 235.259L140.06 237.492L140.354 239.725M139.766 235.259L147.86 234.193M140.354 239.725L148.448 238.659M149.22 244.52C148.652 240.204 151.69 236.245 156.006 235.676C159.136 235.264 162.079 236.749 163.677 239.243M149.22 244.52C149.788 248.836 153.748 251.875 158.064 251.307C162.38 250.738 165.418 246.779 164.85 242.463C164.694 241.277 164.282 240.187 163.677 239.243M149.22 244.52L148.448 238.659M163.677 239.243C162.365 237.133 158.751 231.624 154.793 226.466C150.836 221.308 146.648 224.983 146.978 227.495L147.86 234.193M147.86 234.193L148.154 236.426L148.448 238.659M137.218 246.1C136.934 243.942 134.954 242.423 132.796 242.707C130.638 242.991 129.119 244.971 129.403 247.129C129.687 249.287 131.667 250.806 133.825 250.522C135.983 250.238 137.502 248.258 137.218 246.1ZM153.127 244.006C152.843 241.848 154.362 239.868 156.52 239.584C158.679 239.3 160.658 240.819 160.942 242.977C161.227 245.135 159.707 247.115 157.549 247.399C155.391 247.683 153.411 246.164 153.127 244.006Z" stroke="#7A5800" stroke-width="2.49"/>
<path d="M111.91 330.123C111.342 325.806 107.382 322.768 103.066 323.336C99.936 323.748 97.4779 325.944 96.5802 328.766M111.91 330.123C112.479 334.439 109.44 338.398 105.124 338.967C100.808 339.535 96.8483 336.496 96.2801 332.18C96.1239 330.994 96.2401 329.835 96.5802 328.766M111.91 330.123L111.139 324.261M96.5802 328.766C97.3014 326.389 99.3657 320.132 101.854 314.126C104.342 308.119 109.338 310.585 109.669 313.097L110.551 319.795M110.551 319.795L110.845 322.028L111.139 324.261M110.551 319.795L118.645 318.73M111.139 324.261L119.233 323.196M120.004 329.057C119.436 324.741 122.475 320.781 126.791 320.213C129.921 319.801 132.864 321.286 134.461 323.779M120.004 329.057C120.573 333.373 124.532 336.411 128.848 335.843C133.165 335.275 136.203 331.315 135.635 326.999C135.479 325.813 135.066 324.724 134.461 323.779M120.004 329.057L119.233 323.196M134.461 323.779C133.149 321.669 129.536 316.16 125.578 311.002C121.62 305.844 117.432 309.519 117.763 312.031L118.645 318.73M118.645 318.73L118.939 320.963L119.233 323.196M108.003 330.637C107.719 328.479 105.739 326.96 103.581 327.244C101.423 327.528 99.9035 329.508 100.188 331.666C100.472 333.824 102.452 335.343 104.61 335.059C106.768 334.775 108.287 332.795 108.003 330.637ZM123.912 328.542C123.628 326.384 125.147 324.405 127.305 324.121C129.463 323.836 131.443 325.356 131.727 327.514C132.011 329.672 130.492 331.651 128.334 331.936C126.176 332.22 124.196 330.701 123.912 328.542Z" stroke="#7A5800" stroke-width="2.49"/>
<path d="M82.6944 414.659C82.1262 410.343 78.1666 407.305 73.8505 407.873C70.7202 408.285 68.2621 410.481 67.3644 413.303M82.6944 414.659C83.2627 418.975 80.2244 422.935 75.9082 423.503C71.5921 424.071 67.6325 421.033 67.0642 416.717C66.9081 415.531 67.0243 414.372 67.3644 413.303M82.6944 414.659L81.9228 408.798M67.3644 413.303C68.0855 410.925 70.1499 404.669 72.6379 398.662C75.1258 392.656 80.1223 395.121 80.453 397.633L81.3349 404.332M81.3349 404.332L81.6288 406.565L81.9228 408.798M81.3349 404.332L89.4291 403.266M81.9228 408.798L90.017 407.732M90.7887 413.594C90.2204 409.277 93.2587 405.318 97.5749 404.75C100.705 404.337 103.648 405.822 105.245 408.316M90.7887 413.594C91.3569 417.91 95.3165 420.948 99.6326 420.38C103.949 419.812 106.987 415.852 106.419 411.536C106.263 410.35 105.851 409.26 105.245 408.316M90.7887 413.594L90.017 407.732M105.245 408.316C103.933 406.206 100.32 400.697 96.3623 395.539C92.4045 390.381 88.2165 394.056 88.5472 396.568L89.4291 403.266M89.4291 403.266L89.723 405.499L90.017 407.732M78.7869 415.174C78.5028 413.016 76.523 411.496 74.3649 411.781C72.2068 412.065 70.6877 414.044 70.9718 416.202C71.2559 418.361 73.2357 419.88 75.3938 419.596C77.5519 419.311 79.071 417.332 78.7869 415.174ZM94.6962 413.079C94.4121 410.921 95.9312 408.941 98.0893 408.657C100.247 408.373 102.227 409.892 102.511 412.05C102.795 414.208 101.276 416.188 99.1182 416.472C96.9601 416.756 94.9803 415.237 94.6962 413.079Z" stroke="#7A5800" stroke-width="2.49"/>
<path d="M285.76 57.0947C285.192 52.7786 281.233 49.7403 276.916 50.3085C273.786 50.7206 271.328 52.9165 270.43 55.7385M285.76 57.0947C286.329 61.4109 283.29 65.3705 278.974 65.9387C274.658 66.5069 270.698 63.4686 270.13 59.1525C269.974 57.9666 270.09 56.8076 270.43 55.7385M285.76 57.0947L284.989 51.2334M270.43 55.7385C271.151 53.361 273.216 47.1044 275.704 41.0978C278.192 35.0913 283.188 37.557 283.519 40.069L284.401 46.7676M284.401 46.7676L284.695 49.0005L284.989 51.2334M284.401 46.7676L292.495 45.702M284.989 51.2334L293.083 50.1678M293.855 56.0291C293.286 51.7129 296.325 47.7534 300.641 47.1851C303.771 46.773 306.714 48.2578 308.311 50.7513M293.855 56.0291C294.423 60.3453 298.382 63.3836 302.699 62.8153C307.015 62.2471 310.053 58.2875 309.485 53.9713C309.329 52.7854 308.917 51.696 308.311 50.7513M293.855 56.0291L293.083 50.1678M308.311 50.7513C306.999 48.6415 303.386 43.1324 299.428 37.9745C295.47 32.8165 291.282 36.4913 291.613 39.0033L292.495 45.702M292.495 45.702L292.789 47.9349L293.083 50.1678M281.853 57.6092C281.569 55.4511 279.589 53.9319 277.431 54.2161C275.273 54.5002 273.754 56.48 274.038 58.638C274.322 60.7961 276.302 62.3153 278.46 62.0312C280.618 61.747 282.137 59.7672 281.853 57.6092ZM297.762 55.5147C297.478 53.3566 298.997 51.3768 301.155 51.0927C303.313 50.8086 305.293 52.3277 305.577 54.4858C305.861 56.6439 304.342 58.6237 302.184 58.9078C300.026 59.1919 298.046 57.6727 297.762 55.5147Z" stroke="#7A5800" stroke-width="2.49"/>
<path d="M256.545 141.631C255.976 137.315 252.017 134.277 247.701 134.845C244.57 135.257 242.112 137.453 241.214 140.275M256.545 141.631C257.113 145.948 254.074 149.907 249.758 150.475C245.442 151.044 241.483 148.005 240.914 143.689C240.758 142.503 240.874 141.344 241.214 140.275M256.545 141.631L255.773 135.77M241.214 140.275C241.936 137.898 244 131.641 246.488 125.634C248.976 119.628 253.972 122.094 254.303 124.606L255.185 131.304M255.185 131.304L255.479 133.537L255.773 135.77M255.185 131.304L263.279 130.239M255.773 135.77L263.867 134.704M264.639 140.566C264.071 136.25 267.109 132.29 271.425 131.722C274.555 131.31 277.498 132.794 279.095 135.288M264.639 140.566C265.207 144.882 269.167 147.92 273.483 147.352C277.799 146.784 280.837 142.824 280.269 138.508C280.113 137.322 279.701 136.233 279.095 135.288M264.639 140.566L263.867 134.704M279.095 135.288C277.784 133.178 274.17 127.669 270.212 122.511C266.255 117.353 262.067 121.028 262.397 123.54L263.279 130.239M263.279 130.239L263.573 132.472L263.867 134.704M252.637 142.146C252.353 139.988 250.373 138.469 248.215 138.753C246.057 139.037 244.538 141.017 244.822 143.175C245.106 145.333 247.086 146.852 249.244 146.568C251.402 146.284 252.921 144.304 252.637 142.146ZM268.546 140.051C268.262 137.893 269.781 135.913 271.939 135.629C274.098 135.345 276.077 136.864 276.361 139.022C276.646 141.18 275.126 143.16 272.968 143.444C270.81 143.729 268.83 142.209 268.546 140.051Z" stroke="#7A5800" stroke-width="2.49"/>
<path d="M227.329 226.168C226.76 221.852 222.801 218.814 218.485 219.382C215.354 219.794 212.896 221.99 211.999 224.812M227.329 226.168C227.897 230.484 224.859 234.444 220.542 235.012C216.226 235.58 212.267 232.542 211.699 228.226C211.542 227.04 211.659 225.881 211.999 224.812M227.329 226.168L226.557 220.307M211.999 224.812C212.72 222.434 214.784 216.178 217.272 210.171C219.76 204.165 224.757 206.63 225.087 209.142L225.969 215.841M225.969 215.841L226.263 218.074L226.557 220.307M225.969 215.841L234.063 214.775M226.557 220.307L234.651 219.241M235.423 225.102C234.855 220.786 237.893 216.827 242.209 216.258C245.339 215.846 248.282 217.331 249.88 219.825M235.423 225.102C235.991 229.419 239.951 232.457 244.267 231.889C248.583 231.32 251.621 227.361 251.053 223.045C250.897 221.859 250.485 220.769 249.88 219.825M235.423 225.102L234.651 219.241M249.88 219.825C248.568 217.715 244.954 212.206 240.997 207.048C237.039 201.89 232.851 205.565 233.181 208.077L234.063 214.775M234.063 214.775L234.357 217.008L234.651 219.241M223.421 226.682C223.137 224.524 221.157 223.005 218.999 223.289C216.841 223.573 215.322 225.553 215.606 227.711C215.89 229.869 217.87 231.389 220.028 231.104C222.186 230.82 223.705 228.84 223.421 226.682ZM239.33 224.588C239.046 222.43 240.566 220.45 242.724 220.166C244.882 219.882 246.861 221.401 247.146 223.559C247.43 225.717 245.911 227.697 243.752 227.981C241.594 228.265 239.615 226.746 239.33 224.588Z" stroke="#7A5800" stroke-width="2.49"/>
<path d="M198.113 310.705C197.545 306.389 193.585 303.35 189.269 303.919C186.139 304.331 183.681 306.527 182.783 309.349M198.113 310.705C198.681 315.021 195.643 318.981 191.327 319.549C187.011 320.117 183.051 317.079 182.483 312.763C182.327 311.577 182.443 310.418 182.783 309.349M198.113 310.705L197.341 304.844M182.783 309.349C183.504 306.971 185.568 300.714 188.056 294.708C190.544 288.701 195.541 291.167 195.871 293.679L196.753 300.378M196.753 300.378L197.047 302.611L197.341 304.844M196.753 300.378L204.848 299.312M197.341 304.844L205.435 303.778M206.207 309.639C205.639 305.323 208.677 301.363 212.993 300.795C216.124 300.383 219.066 301.868 220.664 304.361M206.207 309.639C206.775 313.955 210.735 316.994 215.051 316.425C219.367 315.857 222.406 311.898 221.837 307.581C221.681 306.396 221.269 305.306 220.664 304.361M206.207 309.639L205.435 303.778M220.664 304.361C219.352 302.252 215.739 296.742 211.781 291.585C207.823 286.427 203.635 290.101 203.966 292.613L204.848 299.312M204.848 299.312L205.141 301.545L205.435 303.778M194.205 311.219C193.921 309.061 191.941 307.542 189.783 307.826C187.625 308.11 186.106 310.09 186.39 312.248C186.674 314.406 188.654 315.925 190.812 315.641C192.97 315.357 194.489 313.377 194.205 311.219ZM210.115 309.125C209.831 306.967 211.35 304.987 213.508 304.703C215.666 304.419 217.646 305.938 217.93 308.096C218.214 310.254 216.695 312.234 214.537 312.518C212.379 312.802 210.399 311.283 210.115 309.125Z" stroke="#7A5800" stroke-width="2.49"/>
<path d="M168.897 395.241C168.329 390.925 164.369 387.887 160.053 388.455C156.923 388.867 154.465 391.063 153.567 393.885M168.897 395.241C169.465 399.558 166.427 403.517 162.111 404.085C157.795 404.654 153.835 401.615 153.267 397.299C153.111 396.113 153.227 394.954 153.567 393.885M168.897 395.241L168.125 389.38M153.567 393.885C154.288 391.508 156.353 385.251 158.84 379.245C161.328 373.238 166.325 375.704 166.656 378.216L167.537 384.914M167.537 384.914L167.831 387.147L168.125 389.38M167.537 384.914L175.632 383.849M168.125 389.38L176.22 388.315M176.991 394.176C176.423 389.86 179.461 385.9 183.778 385.332C186.908 384.92 189.85 386.405 191.448 388.898M176.991 394.176C177.56 398.492 181.519 401.53 185.835 400.962C190.151 400.394 193.19 396.434 192.622 392.118C192.465 390.932 192.053 389.843 191.448 388.898M176.991 394.176L176.22 388.315M191.448 388.898C190.136 386.788 186.523 381.279 182.565 376.121C178.607 370.963 174.419 374.638 174.75 377.15L175.632 383.849M175.632 383.849L175.926 386.082L176.22 388.315M164.99 395.756C164.705 393.598 162.726 392.079 160.568 392.363C158.409 392.647 156.89 394.627 157.174 396.785C157.459 398.943 159.438 400.462 161.596 400.178C163.755 399.894 165.274 397.914 164.99 395.756ZM180.899 393.661C180.615 391.503 182.134 389.524 184.292 389.239C186.45 388.955 188.43 390.474 188.714 392.633C188.998 394.791 187.479 396.77 185.321 397.055C183.163 397.339 181.183 395.819 180.899 393.661Z" stroke="#7A5800" stroke-width="2.49"/>
<path d="M391.581 2.81811C391.012 -1.49805 387.053 -4.53634 382.737 -3.96811C379.606 -3.556 377.148 -1.36014 376.251 1.46185M391.581 2.81811C392.149 7.13428 389.111 11.0939 384.794 11.6621C380.478 12.2303 376.519 9.19203 375.95 4.87587C375.794 3.68996 375.91 2.53097 376.251 1.46185M391.581 2.81811L390.809 -3.04321M376.251 1.46185C376.972 -0.915642 379.036 -7.17225 381.524 -13.1788C384.012 -19.1853 389.008 -16.7196 389.339 -14.2076L390.221 -7.50899M390.221 -7.50899L390.515 -5.2761L390.809 -3.04321M390.221 -7.50899L398.315 -8.57461M390.809 -3.04321L398.903 -4.10884M399.675 1.75249C399.107 -2.56367 402.145 -6.52326 406.461 -7.09149C409.591 -7.5036 412.534 -6.01877 414.132 -3.52528M399.675 1.75249C400.243 6.06865 404.203 9.10695 408.519 8.53872C412.835 7.97048 415.873 4.0109 415.305 -0.305265C415.149 -1.49118 414.737 -2.58061 414.132 -3.52528M399.675 1.75249L398.903 -4.10884M414.132 -3.52528C412.82 -5.63511 409.206 -11.1442 405.249 -16.3021C401.291 -21.4601 397.103 -17.7853 397.433 -15.2733L398.315 -8.57461M398.315 -8.57461L398.609 -6.34172L398.903 -4.10884M387.673 3.33255C387.389 1.17447 385.409 -0.344676 383.251 -0.0605592C381.093 0.223558 379.574 2.20335 379.858 4.36143C380.142 6.51951 382.122 8.03866 384.28 7.75454C386.438 7.47043 387.957 5.49064 387.673 3.33255ZM403.582 1.23805C403.298 -0.92003 404.817 -2.89982 406.976 -3.18394C409.134 -3.46806 411.113 -1.94891 411.398 0.209174C411.682 2.36726 410.163 4.34705 408.004 4.63116C405.846 4.91528 403.867 3.39613 403.582 1.23805Z" stroke="#7A5800" stroke-width="2.49"/>
<path d="M362.365 87.3547C361.797 83.0386 357.838 80.0003 353.521 80.5685C350.391 80.9806 347.933 83.1765 347.035 85.9985M362.365 87.3547C362.934 91.6709 359.895 95.6305 355.579 96.1987C351.263 96.767 347.303 93.7287 346.735 89.4125C346.579 88.2266 346.695 87.0676 347.035 85.9985M362.365 87.3547L361.594 81.4934M347.035 85.9985C347.756 83.621 349.821 77.3644 352.309 71.3579C354.797 65.3513 359.793 67.817 360.124 70.329L361.006 77.0276M361.006 77.0276L361.3 79.2605L361.594 81.4934M361.006 77.0276L369.1 75.962M361.594 81.4934L369.688 80.4278M370.46 86.2891C369.891 81.9729 372.93 78.0134 377.246 77.4451C380.376 77.033 383.319 78.5179 384.916 81.0113M370.46 86.2891C371.028 90.6053 374.987 93.6436 379.304 93.0753C383.62 92.5071 386.658 88.5475 386.09 84.2314C385.934 83.0454 385.521 81.956 384.916 81.0113M370.46 86.2891L369.688 80.4278M384.916 81.0113C383.604 78.9015 379.991 73.3924 376.033 68.2345C372.075 63.0766 367.887 66.7514 368.218 69.2633L369.1 75.962M369.1 75.962L369.394 78.1949L369.688 80.4278M358.458 87.8692C358.174 85.7111 356.194 84.1919 354.036 84.4761C351.878 84.7602 350.359 86.74 350.643 88.8981C350.927 91.0561 352.907 92.5753 355.065 92.2912C357.223 92.007 358.742 90.0273 358.458 87.8692ZM374.367 85.7747C374.083 83.6166 375.602 81.6368 377.76 81.3527C379.918 81.0686 381.898 82.5877 382.182 84.7458C382.466 86.9039 380.947 88.8837 378.789 89.1678C376.631 89.4519 374.651 87.9328 374.367 85.7747Z" stroke="#7A5800" stroke-width="2.49"/>
<path d="M333.15 171.891C332.581 167.575 328.622 164.537 324.306 165.105C321.175 165.517 318.717 167.713 317.819 170.535M333.15 171.891C333.718 176.208 330.679 180.167 326.363 180.735C322.047 181.304 318.088 178.265 317.519 173.949C317.363 172.763 317.479 171.604 317.819 170.535M333.15 171.891L332.378 166.03M317.819 170.535C318.541 168.158 320.605 161.901 323.093 155.894C325.581 149.888 330.577 152.354 330.908 154.866L331.79 161.564M331.79 161.564L332.084 163.797L332.378 166.03M331.79 161.564L339.884 160.499M332.378 166.03L340.472 164.964M341.244 170.826C340.676 166.51 343.714 162.55 348.03 161.982C351.16 161.57 354.103 163.054 355.7 165.548M341.244 170.826C341.812 175.142 345.772 178.18 350.088 177.612C354.404 177.044 357.442 173.084 356.874 168.768C356.718 167.582 356.306 166.493 355.7 165.548M341.244 170.826L340.472 164.964M355.7 165.548C354.389 163.438 350.775 157.929 346.817 152.771C342.86 147.613 338.672 151.288 339.002 153.8L339.884 160.499M339.884 160.499L340.178 162.732L340.472 164.964M329.242 172.406C328.958 170.248 326.978 168.729 324.82 169.013C322.662 169.297 321.143 171.277 321.427 173.435C321.711 175.593 323.691 177.112 325.849 176.828C328.007 176.544 329.526 174.564 329.242 172.406ZM345.151 170.311C344.867 168.153 346.386 166.173 348.544 165.889C350.702 165.605 352.682 167.124 352.966 169.282C353.251 171.44 351.731 173.42 349.573 173.704C347.415 173.989 345.435 172.469 345.151 170.311Z" stroke="#7A5800" stroke-width="2.49"/>
<path d="M303.934 256.428C303.365 252.112 299.406 249.074 295.09 249.642C291.959 250.054 289.501 252.25 288.604 255.072M303.934 256.428C304.502 260.744 301.464 264.704 297.147 265.272C292.831 265.84 288.872 262.802 288.303 258.486C288.147 257.3 288.264 256.141 288.604 255.072M303.934 256.428L303.162 250.567M288.604 255.072C289.325 252.694 291.389 246.438 293.877 240.431C296.365 234.425 301.362 236.89 301.692 239.402L302.574 246.101M302.574 246.101L302.868 248.334L303.162 250.567M302.574 246.101L310.668 245.035M303.162 250.567L311.256 249.501M312.028 255.362C311.46 251.046 314.498 247.087 318.814 246.518C321.944 246.106 324.887 247.591 326.485 250.085M312.028 255.362C312.596 259.679 316.556 262.717 320.872 262.149C325.188 261.58 328.226 257.621 327.658 253.305C327.502 252.119 327.09 251.029 326.485 250.085M312.028 255.362L311.256 249.501M326.485 250.085C325.173 247.975 321.559 242.466 317.602 237.308C313.644 232.15 309.456 235.825 309.786 238.337L310.668 245.035M310.668 245.035L310.962 247.268L311.256 249.501M300.026 256.942C299.742 254.784 297.762 253.265 295.604 253.549C293.446 253.833 291.927 255.813 292.211 257.971C292.495 260.129 294.475 261.649 296.633 261.364C298.791 261.08 300.31 259.1 300.026 256.942ZM315.935 254.848C315.651 252.69 317.171 250.71 319.329 250.426C321.487 250.142 323.466 251.661 323.751 253.819C324.035 255.977 322.516 257.957 320.357 258.241C318.199 258.525 316.22 257.006 315.935 254.848Z" stroke="#7A5800" stroke-width="2.49"/>
<path d="M274.718 340.965C274.15 336.648 270.19 333.61 265.874 334.178C262.744 334.59 260.286 336.786 259.388 339.608M274.718 340.965C275.286 345.281 272.248 349.24 267.932 349.809C263.615 350.377 259.656 347.339 259.088 343.022C258.932 341.836 259.048 340.677 259.388 339.608M274.718 340.965L273.946 335.103M259.388 339.608C260.109 337.231 262.173 330.974 264.661 324.968C267.149 318.961 272.146 321.427 272.476 323.939L273.358 330.637M273.358 330.637L273.652 332.87L273.946 335.103M273.358 330.637L281.453 329.572M273.946 335.103L282.04 334.038M282.812 339.899C282.244 335.583 285.282 331.623 289.598 331.055C292.729 330.643 295.671 332.128 297.269 334.621M282.812 339.899C283.38 344.215 287.34 347.253 291.656 346.685C295.972 346.117 299.011 342.157 298.442 337.841C298.286 336.655 297.874 335.566 297.269 334.621M282.812 339.899L282.04 334.038M297.269 334.621C295.957 332.511 292.344 327.002 288.386 321.844C284.428 316.686 280.24 320.361 280.571 322.873L281.453 329.572M281.453 329.572L281.746 331.805L282.04 334.038M270.81 341.479C270.526 339.321 268.546 337.802 266.388 338.086C264.23 338.37 262.711 340.35 262.995 342.508C263.279 344.666 265.259 346.185 267.417 345.901C269.575 345.617 271.094 343.637 270.81 341.479ZM286.72 339.385C286.436 337.226 287.955 335.247 290.113 334.963C292.271 334.678 294.251 336.198 294.535 338.356C294.819 340.514 293.3 342.494 291.142 342.778C288.984 343.062 287.004 341.543 286.72 339.385Z" stroke="#7A5800" stroke-width="2.49"/>
<path d="M419.353 152.473C418.784 148.157 414.825 145.119 410.509 145.687C407.378 146.099 404.92 148.295 404.023 151.117M419.353 152.473C419.921 156.79 416.883 160.749 412.566 161.317C408.25 161.886 404.291 158.847 403.722 154.531C403.566 153.345 403.682 152.186 404.023 151.117M419.353 152.473L418.581 146.612M404.023 151.117C404.744 148.74 406.808 142.483 409.296 136.477C411.784 130.47 416.78 132.936 417.111 135.448L417.993 142.146M417.993 142.146L418.287 144.379L418.581 146.612M417.993 142.146L426.087 141.081M418.581 146.612L426.675 145.546M427.447 151.408C426.879 147.092 429.917 143.132 434.233 142.564C437.363 142.152 440.306 143.637 441.904 146.13M427.447 151.408C428.015 155.724 431.975 158.762 436.291 158.194C440.607 157.626 443.645 153.666 443.077 149.35C442.921 148.164 442.509 147.075 441.904 146.13M427.447 151.408L426.675 145.546M441.904 146.13C440.592 144.02 436.978 138.511 433.02 133.353C429.063 128.195 424.875 131.87 425.205 134.382L426.087 141.081M426.087 141.081L426.381 143.314L426.675 145.546M415.445 152.988C415.161 150.83 413.181 149.311 411.023 149.595C408.865 149.879 407.346 151.859 407.63 154.017C407.914 156.175 409.894 157.694 412.052 157.41C414.21 157.126 415.729 155.146 415.445 152.988ZM431.354 150.893C431.07 148.735 432.589 146.755 434.748 146.471C436.906 146.187 438.885 147.706 439.17 149.864C439.454 152.023 437.934 154.002 435.776 154.286C433.618 154.571 431.639 153.051 431.354 150.893Z" stroke="#7A5800" stroke-width="2.49"/>
<path d="M390.137 237.01C389.569 232.694 385.609 229.656 381.293 230.224C378.163 230.636 375.704 232.832 374.807 235.654M390.137 237.01C390.705 241.326 387.667 245.286 383.351 245.854C379.034 246.422 375.075 243.384 374.507 239.068C374.35 237.882 374.467 236.723 374.807 235.654M390.137 237.01L389.365 231.149M374.807 235.654C375.528 233.276 377.592 227.02 380.08 221.013C382.568 215.007 387.565 217.472 387.895 219.984L388.777 226.683M388.777 226.683L389.071 228.916L389.365 231.149M388.777 226.683L396.871 225.618M389.365 231.149L397.459 230.083M398.231 235.945C397.663 231.628 400.701 227.669 405.017 227.101C408.148 226.689 411.09 228.173 412.688 230.667M398.231 235.945C398.799 240.261 402.759 243.299 407.075 242.731C411.391 242.163 414.429 238.203 413.861 233.887C413.705 232.701 413.293 231.612 412.688 230.667M398.231 235.945L397.459 230.083M412.688 230.667C411.376 228.557 407.762 223.048 403.805 217.89C399.847 212.732 395.659 216.407 395.99 218.919L396.871 225.618M396.871 225.618L397.165 227.85L397.459 230.083M386.229 237.525C385.945 235.367 383.965 233.847 381.807 234.132C379.649 234.416 378.13 236.395 378.414 238.554C378.698 240.712 380.678 242.231 382.836 241.947C384.994 241.663 386.513 239.683 386.229 237.525ZM402.139 235.43C401.854 233.272 403.374 231.292 405.532 231.008C407.69 230.724 409.67 232.243 409.954 234.401C410.238 236.559 408.719 238.539 406.561 238.823C404.403 239.107 402.423 237.588 402.139 235.43Z" stroke="#7A5800" stroke-width="2.49"/>
<path d="M360.921 321.547C360.353 317.231 356.393 314.192 352.077 314.761C348.947 315.173 346.489 317.369 345.591 320.191M360.921 321.547C361.489 325.863 358.451 329.823 354.135 330.391C349.819 330.959 345.859 327.921 345.291 323.605C345.135 322.419 345.251 321.26 345.591 320.191M360.921 321.547L360.149 315.686M345.591 320.191C346.312 317.813 348.376 311.557 350.864 305.55C353.352 299.543 358.349 302.009 358.68 304.521L359.561 311.22M359.561 311.22L359.855 313.453L360.149 315.686M359.561 311.22L367.656 310.154M360.149 315.686L368.244 314.62M369.015 320.481C368.447 316.165 371.485 312.206 375.801 311.637C378.932 311.225 381.874 312.71 383.472 315.203M369.015 320.481C369.583 324.797 373.543 327.836 377.859 327.267C382.175 326.699 385.214 322.74 384.645 318.423C384.489 317.238 384.077 316.148 383.472 315.203M369.015 320.481L368.244 314.62M383.472 315.203C382.16 313.094 378.547 307.585 374.589 302.427C370.631 297.269 366.443 300.943 366.774 303.455L367.656 310.154M367.656 310.154L367.95 312.387L368.244 314.62M357.013 322.061C356.729 319.903 354.75 318.384 352.591 318.668C350.433 318.952 348.914 320.932 349.198 323.09C349.482 325.248 351.462 326.767 353.62 326.483C355.778 326.199 357.298 324.219 357.013 322.061ZM372.923 319.967C372.639 317.809 374.158 315.829 376.316 315.545C378.474 315.261 380.454 316.78 380.738 318.938C381.022 321.096 379.503 323.076 377.345 323.36C375.187 323.644 373.207 322.125 372.923 319.967Z" stroke="#7A5800" stroke-width="2.49"/>
<path d="M331.705 406.083C331.137 401.767 327.177 398.729 322.861 399.297C319.731 399.709 317.273 401.905 316.375 404.727M331.705 406.083C332.273 410.4 329.235 414.359 324.919 414.927C320.603 415.496 316.643 412.457 316.075 408.141C315.919 406.955 316.035 405.796 316.375 404.727M331.705 406.083L330.934 400.222M316.375 404.727C317.096 402.35 319.161 396.093 321.649 390.087C324.137 384.08 329.133 386.546 329.464 389.058L330.346 395.756M330.346 395.756L330.64 397.989L330.934 400.222M330.346 395.756L338.44 394.691M330.934 400.222L339.028 399.157M339.799 405.018C339.231 400.702 342.269 396.742 346.586 396.174C349.716 395.762 352.659 397.247 354.256 399.74M339.799 405.018C340.368 409.334 344.327 412.372 348.643 411.804C352.96 411.236 355.998 407.276 355.43 402.96C355.273 401.774 354.861 400.685 354.256 399.74M339.799 405.018L339.028 399.157M354.256 399.74C352.944 397.63 349.331 392.121 345.373 386.963C341.415 381.805 337.227 385.48 337.558 387.992L338.44 394.691M338.44 394.691L338.734 396.924L339.028 399.157M327.798 406.598C327.514 404.44 325.534 402.921 323.376 403.205C321.218 403.489 319.698 405.469 319.983 407.627C320.267 409.785 322.246 411.304 324.405 411.02C326.563 410.736 328.082 408.756 327.798 406.598ZM343.707 404.503C343.423 402.345 344.942 400.366 347.1 400.081C349.258 399.797 351.238 401.316 351.522 403.475C351.806 405.633 350.287 407.612 348.129 407.897C345.971 408.181 343.991 406.662 343.707 404.503Z" stroke="#7A5800" stroke-width="2.49"/>
</g>
</g>
<defs>
<clipPath id="clip0_3326_8128">
<rect width="400" height="400" fill="white"/>
</clipPath>
</defs>
</svg>
