<svg width="400" height="400" viewBox="0 0 400 400" fill="none" xmlns="http://www.w3.org/2000/svg">
<g clip-path="url(#clip0_3326_7980)">
<g opacity="0.15">
<path d="M17.561 41.875L18.2055 46.7699M22.7479 81.2731L20.7832 66.3495M18.2055 46.7699C21.4294 44.4642 30.5722 40.2284 41.3523 41.7307C41.5254 43.0453 41.8074 45.1876 42.1256 47.6046M18.2055 46.7699L20.7832 66.3495M43.7582 60.005C39.6774 59.9889 29.3694 61.2353 20.7832 66.3495M43.7582 60.005C43.373 57.0797 42.692 51.9069 42.1256 47.6046M43.7582 60.005L40.0072 62.8388M36.8402 65.2315C40.9047 66.799 51.3409 68.3686 60.5698 62.1075C60.0543 58.1915 58.7225 48.0754 58.121 43.5068C55.8804 44.9084 49.5445 47.6902 42.1256 47.6046M36.8402 65.2315L36.3246 61.3156M36.8402 65.2315L38.4863 63.9879M38.4863 63.9879L38.1025 61.0723M38.4863 63.9879L40.0072 62.8388M40.0072 62.8388L39.7474 60.865" stroke="#BB0F03" stroke-width="2.5"/>
<path d="M-11.6548 126.412L-11.0104 131.307M-6.46792 165.81L-8.43265 150.886M-11.0104 131.307C-7.78646 129.001 1.35636 124.765 12.1365 126.267C12.3096 127.582 12.5916 129.724 12.9098 132.141M-11.0104 131.307L-8.43265 150.886M14.5423 144.542C10.4616 144.526 0.153594 145.772 -8.43265 150.886M14.5423 144.542C14.1572 141.616 13.4762 136.444 12.9098 132.141M14.5423 144.542L10.7914 147.375M7.62436 149.768C11.6889 151.336 22.1251 152.905 31.354 146.644C30.8385 142.728 29.5067 132.612 28.9052 128.043C26.6646 129.445 20.3287 132.227 12.9098 132.141M7.62436 149.768L7.10882 145.852M7.62436 149.768L9.27052 148.524M9.27052 148.524L8.88668 145.609M9.27052 148.524L10.7914 147.375M10.7914 147.375L10.5315 145.402" stroke="#BB0F03" stroke-width="2.5"/>
<path d="M-40.8701 210.948L-40.2257 215.843M-35.6833 250.346L-37.648 235.423M-40.2257 215.843C-37.0018 213.537 -27.859 209.302 -17.0789 210.804C-16.9058 212.119 -16.6237 214.261 -16.3055 216.678M-40.2257 215.843L-37.648 235.423M-14.673 229.078C-18.7537 229.062 -29.0617 230.309 -37.648 235.423M-14.673 229.078C-15.0581 226.153 -15.7391 220.98 -16.3055 216.678M-14.673 229.078L-18.4239 231.912M-21.591 234.305C-17.5265 235.872 -7.09023 237.442 2.13869 231.181C1.62315 227.265 0.291339 217.149 -0.310126 212.58C-2.55072 213.982 -8.88664 216.763 -16.3055 216.678M-21.591 234.305L-22.1065 230.389M-21.591 234.305L-19.9448 233.061M-19.9448 233.061L-20.3286 230.146M-19.9448 233.061L-18.4239 231.912M-18.4239 231.912L-18.6838 229.938" stroke="#BB0F03" stroke-width="2.5"/>
<path d="M103.764 22.457L104.409 27.3519M108.951 61.8552L106.986 46.9316M104.409 27.3519C107.632 25.0463 116.775 20.8105 127.555 22.3127C127.728 23.6274 128.011 25.7696 128.329 28.1866M104.409 27.3519L106.986 46.9316M129.961 40.587C125.881 40.5709 115.573 41.8174 106.986 46.9316M129.961 40.587C129.576 37.6618 128.895 32.4889 128.329 28.1866M129.961 40.587L126.21 43.4209M123.043 45.8136C127.108 47.381 137.544 48.9506 146.773 42.6895C146.257 38.7736 144.926 28.6574 144.324 24.0889C142.084 25.4904 135.748 28.2722 128.329 28.1866M123.043 45.8136L122.528 41.8976M123.043 45.8136L124.689 44.5699M124.689 44.5699L124.306 41.6544M124.689 44.5699L126.21 43.4209M126.21 43.4209L125.95 41.447" stroke="#BB0F03" stroke-width="2.5"/>
<path d="M74.5483 106.994L75.1928 111.889M79.7352 146.392L77.7705 131.468M75.1928 111.889C78.4167 109.583 87.5595 105.347 98.3396 106.85C98.5127 108.164 98.7947 110.306 99.1129 112.723M75.1928 111.889L77.7705 131.468M100.745 125.124C96.6647 125.108 86.3567 126.354 77.7705 131.468M100.745 125.124C100.36 122.199 99.6793 117.026 99.1129 112.723M100.745 125.124L96.9945 127.958M93.8275 130.35C97.892 131.918 108.328 133.488 117.557 127.226C117.042 123.31 115.71 113.194 115.108 108.626C112.868 110.027 106.532 112.809 99.1129 112.723M93.8275 130.35L93.3119 126.434M93.8275 130.35L95.4736 129.107M95.4736 129.107L95.0898 126.191M95.4736 129.107L96.9945 127.958M96.9945 127.958L96.7347 125.984" stroke="#BB0F03" stroke-width="2.5"/>
<path d="M45.3325 191.531L45.9769 196.425M50.5194 230.929L48.5547 216.005M45.9769 196.425C49.2008 194.12 58.3437 189.884 69.1238 191.386C69.2969 192.701 69.5789 194.843 69.8971 197.26M45.9769 196.425L48.5547 216.005M71.5296 209.66C67.4489 209.644 57.1409 210.891 48.5547 216.005M71.5296 209.66C71.1445 206.735 70.4635 201.562 69.8971 197.26M71.5296 209.66L67.7787 212.494M64.6117 214.887C68.6762 216.455 79.1124 218.024 88.3413 211.763C87.8258 207.847 86.494 197.731 85.8925 193.162C83.6519 194.564 77.316 197.346 69.8971 197.26M64.6117 214.887L64.0961 210.971M64.6117 214.887L66.2578 213.643M66.2578 213.643L65.874 210.728M66.2578 213.643L67.7787 212.494M67.7787 212.494L67.5188 210.521" stroke="#BB0F03" stroke-width="2.5"/>
<path d="M16.1167 276.067L16.7611 280.962M21.3036 315.465L19.3388 300.542M16.7611 280.962C19.985 278.656 29.1278 274.421 39.908 275.923C40.081 277.237 40.3631 279.38 40.6813 281.797M16.7611 280.962L19.3388 300.542M42.3138 294.197C38.2331 294.181 27.9251 295.427 19.3388 300.542M42.3138 294.197C41.9287 291.272 41.2477 286.099 40.6813 281.797M42.3138 294.197L38.5629 297.031M35.3958 299.424C39.4603 300.991 49.8966 302.561 59.1255 296.3C58.61 292.384 57.2782 282.268 56.6767 277.699C54.4361 279.101 48.1002 281.882 40.6813 281.797M35.3958 299.424L34.8803 295.508M35.3958 299.424L37.042 298.18M37.042 298.18L36.6582 295.264M37.042 298.18L38.5629 297.031M38.5629 297.031L38.303 295.057" stroke="#BB0F03" stroke-width="2.5"/>
<path d="M-13.0986 360.604L-12.4542 365.499M-7.91177 400.002L-9.8765 385.078M-12.4542 365.499C-9.23031 363.193 -0.0874838 358.957 10.6926 360.459C10.8657 361.774 11.1477 363.916 11.4659 366.333M-12.4542 365.499L-9.8765 385.078M13.0985 378.734C9.01776 378.718 -1.29025 379.964 -9.8765 385.078M13.0985 378.734C12.7134 375.809 12.0323 370.636 11.4659 366.333M13.0985 378.734L9.34755 381.568M6.18051 383.96C10.245 385.528 20.6813 387.097 29.9102 380.836C29.3946 376.92 28.0628 366.804 27.4614 362.236C25.2208 363.637 18.8848 366.419 11.4659 366.333M6.18051 383.96L5.66497 380.044M6.18051 383.96L7.82667 382.717M7.82667 382.717L7.44284 379.801M7.82667 382.717L9.34755 381.568M9.34755 381.568L9.08769 379.594" stroke="#BB0F03" stroke-width="2.5"/>
<path d="M209.585 -31.8196L210.229 -26.9247M214.772 7.57855L212.807 -7.34506M210.229 -26.9247C213.453 -29.2303 222.596 -33.4661 233.376 -31.9639C233.549 -30.6492 233.831 -28.507 234.15 -26.09M210.229 -26.9247L212.807 -7.34506M235.782 -13.6896C231.701 -13.7057 221.393 -12.4593 212.807 -7.34506M235.782 -13.6896C235.397 -16.6148 234.716 -21.7877 234.15 -26.09M235.782 -13.6896L232.031 -10.8558M228.864 -8.46305C232.929 -6.8956 243.365 -5.32597 252.594 -11.5871C252.078 -15.503 250.746 -25.6192 250.145 -30.1878C247.904 -28.7862 241.568 -26.0044 234.15 -26.09M228.864 -8.46305L228.349 -12.379M228.864 -8.46305L230.51 -9.70673M230.51 -9.70673L230.126 -12.6223M230.51 -9.70673L232.031 -10.8558M232.031 -10.8558L231.771 -12.8296" stroke="#BB0F03" stroke-width="2.5"/>
<path d="M180.369 52.717L181.014 57.6119M185.556 92.1152L183.591 77.1916M181.014 57.6119C184.237 55.3063 193.38 51.0705 204.16 52.5727C204.333 53.8874 204.616 56.0296 204.934 58.4466M181.014 57.6119L183.591 77.1916M206.566 70.847C202.486 70.831 192.178 72.0774 183.591 77.1916M206.566 70.847C206.181 67.9218 205.5 62.7489 204.934 58.4466M206.566 70.847L202.815 73.6809M199.648 76.0736C203.713 77.641 214.149 79.2107 223.378 72.9495C222.862 69.0336 221.531 58.9174 220.929 54.3489C218.689 55.7505 212.353 58.5322 204.934 58.4466M199.648 76.0736L199.133 72.1576M199.648 76.0736L201.294 74.8299M201.294 74.8299L200.911 71.9144M201.294 74.8299L202.815 73.6809M202.815 73.6809L202.555 71.707" stroke="#BB0F03" stroke-width="2.5"/>
<path d="M151.153 137.254L151.798 142.149M156.34 176.652L154.375 161.728M151.798 142.149C155.022 139.843 164.164 135.607 174.945 137.109C175.118 138.424 175.4 140.566 175.718 142.983M151.798 142.149L154.375 161.728M177.35 155.384C173.27 155.368 162.962 156.614 154.375 161.728M177.35 155.384C176.965 152.458 176.284 147.286 175.718 142.983M177.35 155.384L173.6 158.217M170.432 160.61C174.497 162.178 184.933 163.747 194.162 157.486C193.647 153.57 192.315 143.454 191.713 138.885C189.473 140.287 183.137 143.069 175.718 142.983M170.432 160.61L169.917 156.694M170.432 160.61L172.079 159.367M172.079 159.367L171.695 156.451M172.079 159.367L173.6 158.217M173.6 158.217L173.34 156.244" stroke="#BB0F03" stroke-width="2.5"/>
<path d="M121.938 221.79L122.582 226.685M127.124 261.188L125.16 246.265M122.582 226.685C125.806 224.38 134.949 220.144 145.729 221.646C145.902 222.961 146.184 225.103 146.502 227.52M122.582 226.685L125.16 246.265M148.135 239.92C144.054 239.904 133.746 241.151 125.16 246.265M148.135 239.92C147.75 236.995 147.068 231.822 146.502 227.52M148.135 239.92L144.384 242.754M141.217 245.147C145.281 246.714 155.717 248.284 164.946 242.023C164.431 238.107 163.099 227.991 162.497 223.422C160.257 224.824 153.921 227.605 146.502 227.52M141.217 245.147L140.701 241.231M141.217 245.147L142.863 243.903M142.863 243.903L142.479 240.988M142.863 243.903L144.384 242.754M144.384 242.754L144.124 240.78" stroke="#BB0F03" stroke-width="2.5"/>
<path d="M92.7222 306.327L93.3666 311.222M97.909 345.725L95.9443 330.801M93.3666 311.222C96.5905 308.916 105.733 304.68 116.513 306.183C116.687 307.497 116.969 309.639 117.287 312.056M93.3666 311.222L95.9443 330.801M118.919 324.457C114.839 324.441 104.531 325.687 95.9443 330.801M118.919 324.457C118.534 321.532 117.853 316.359 117.287 312.056M118.919 324.457L115.168 327.291M112.001 329.683C116.066 331.251 126.502 332.821 135.731 326.559C135.215 322.643 133.884 312.527 133.282 307.959C131.042 309.36 124.706 312.142 117.287 312.056M112.001 329.683L111.486 325.768M112.001 329.683L113.647 328.44M113.647 328.44L113.264 325.524M113.647 328.44L115.168 327.291M115.168 327.291L114.908 325.317" stroke="#BB0F03" stroke-width="2.5"/>
<path d="M63.5063 390.864L64.1508 395.758M68.6932 430.262L66.7285 415.338M64.1508 395.758C67.3747 393.453 76.5175 389.217 87.2976 390.719C87.4707 392.034 87.7527 394.176 88.0709 396.593M64.1508 395.758L66.7285 415.338M89.7035 408.994C85.6227 408.977 75.3147 410.224 66.7285 415.338M89.7035 408.994C89.3183 406.068 88.6373 400.895 88.0709 396.593M89.7035 408.994L85.9525 411.827M82.7855 414.22C86.85 415.788 97.2862 417.357 106.515 411.096C106 407.18 104.668 397.064 104.066 392.495C101.826 393.897 95.4898 396.679 88.0709 396.593M82.7855 414.22L82.27 410.304M82.7855 414.22L84.4317 412.976M84.4317 412.976L84.0478 410.061M84.4317 412.976L85.9525 411.827M85.9525 411.827L85.6927 409.854" stroke="#BB0F03" stroke-width="2.5"/>
<path d="M266.572 33.2991L267.217 38.194M271.759 72.6972L269.794 57.7736M267.217 38.194C270.441 35.8883 279.583 31.6525 290.364 33.1547C290.537 34.4694 290.819 36.6117 291.137 39.0286M267.217 38.194L269.794 57.7736M292.769 51.4291C288.689 51.413 278.381 52.6594 269.794 57.7736M292.769 51.4291C292.384 48.5038 291.703 43.331 291.137 39.0286M292.769 51.4291L289.018 54.2629M285.851 56.6556C289.916 58.2231 300.352 59.7927 309.581 53.5315C309.066 49.6156 307.734 39.4995 307.132 34.9309C304.892 36.3325 298.556 39.1143 291.137 39.0286M285.851 56.6556L285.336 52.7397M285.851 56.6556L287.498 55.4119M287.498 55.4119L287.114 52.4964M287.498 55.4119L289.018 54.2629M289.018 54.2629L288.759 52.2891" stroke="#BB0F03" stroke-width="2.5"/>
<path d="M237.356 117.836L238.001 122.731M242.543 157.234L240.579 142.31M238.001 122.731C241.225 120.425 250.368 116.189 261.148 117.692C261.321 119.006 261.603 121.149 261.921 123.565M238.001 122.731L240.579 142.31M263.554 135.966C259.473 135.95 249.165 137.196 240.579 142.31M263.554 135.966C263.168 133.041 262.487 127.868 261.921 123.565M263.554 135.966L259.803 138.8M256.636 141.192C260.7 142.76 271.136 144.33 280.365 138.068C279.85 134.152 278.518 124.036 277.916 119.468C275.676 120.869 269.34 123.651 261.921 123.565M256.636 141.192L256.12 137.277M256.636 141.192L258.282 139.949M258.282 139.949L257.898 137.033M258.282 139.949L259.803 138.8M259.803 138.8L259.543 136.826" stroke="#BB0F03" stroke-width="2.5"/>
<path d="M208.141 202.373L208.785 207.267M213.327 241.771L211.363 226.847M208.785 207.267C212.009 204.962 221.152 200.726 231.932 202.228C232.105 203.543 232.387 205.685 232.705 208.102M208.785 207.267L211.363 226.847M234.338 220.503C230.257 220.486 219.949 221.733 211.363 226.847M234.338 220.503C233.953 217.577 233.272 212.404 232.705 208.102M234.338 220.503L230.587 223.336M227.42 225.729C231.484 227.297 241.921 228.866 251.149 222.605C250.634 218.689 249.302 208.573 248.701 204.004C246.46 205.406 240.124 208.188 232.705 208.102M227.42 225.729L226.904 221.813M227.42 225.729L229.066 224.485M229.066 224.485L228.682 221.57M229.066 224.485L230.587 223.336M230.587 223.336L230.327 221.363" stroke="#BB0F03" stroke-width="2.5"/>
<path d="M178.925 286.909L179.569 291.804M184.112 326.307L182.147 311.384M179.569 291.804C182.793 289.498 191.936 285.263 202.716 286.765C202.889 288.08 203.171 290.222 203.489 292.639M179.569 291.804L182.147 311.384M205.122 305.039C201.041 305.023 190.733 306.27 182.147 311.384M205.122 305.039C204.737 302.114 204.056 296.941 203.489 292.639M205.122 305.039L201.371 307.873M198.204 310.266C202.268 311.833 212.705 313.403 221.934 307.142C221.418 303.226 220.086 293.11 219.485 288.541C217.244 289.943 210.908 292.724 203.489 292.639M198.204 310.266L197.688 306.35M198.204 310.266L199.85 309.022M199.85 309.022L199.466 306.107M199.85 309.022L201.371 307.873M201.371 307.873L201.111 305.899" stroke="#BB0F03" stroke-width="2.5"/>
<path d="M149.709 371.446L150.353 376.341M154.896 410.844L152.931 395.92M150.353 376.341C153.577 374.035 162.72 369.799 173.5 371.301C173.673 372.616 173.955 374.758 174.274 377.175M150.353 376.341L152.931 395.92M175.906 389.576C171.825 389.56 161.517 390.806 152.931 395.92M175.906 389.576C175.521 386.651 174.84 381.478 174.274 377.175M175.906 389.576L172.155 392.41M168.988 394.802C173.053 396.37 183.489 397.939 192.718 391.678C192.202 387.762 190.87 377.646 190.269 373.078C188.028 374.479 181.692 377.261 174.274 377.175M168.988 394.802L168.473 390.886M168.988 394.802L170.634 393.559M170.634 393.559L170.25 390.643M170.634 393.559L172.155 392.41M172.155 392.41L171.895 390.436" stroke="#BB0F03" stroke-width="2.5"/>
<path d="M372.393 -20.9775L373.037 -16.0826M377.579 18.4206L375.615 3.49698M373.037 -16.0826C376.261 -18.3883 385.404 -22.6241 396.184 -21.1219C396.357 -19.8072 396.639 -17.665 396.957 -15.248M373.037 -16.0826L375.615 3.49698M398.59 -2.84756C394.509 -2.86363 384.201 -1.61721 375.615 3.49698M398.59 -2.84756C398.205 -5.77279 397.524 -10.9456 396.957 -15.248M398.59 -2.84756L394.839 -0.0137192M391.672 2.37899C395.736 3.94644 406.172 5.51607 415.401 -0.745082C414.886 -4.66101 413.554 -14.7771 412.953 -19.3457C410.712 -17.9441 404.376 -15.1624 396.957 -15.248M391.672 2.37899L391.156 -1.53694M391.672 2.37899L393.318 1.13531M393.318 1.13531L392.934 -1.78022M393.318 1.13531L394.839 -0.0137192M394.839 -0.0137192L394.579 -1.98755" stroke="#BB0F03" stroke-width="2.5"/>
<path d="M343.177 63.5591L343.822 68.454M348.364 102.957L346.399 88.0336M343.822 68.454C347.046 66.1483 356.188 61.9125 366.969 63.4148C367.142 64.7294 367.424 66.8717 367.742 69.2886M343.822 68.454L346.399 88.0336M369.374 81.6891C365.294 81.673 354.986 82.9194 346.399 88.0336M369.374 81.6891C368.989 78.7638 368.308 73.591 367.742 69.2886M369.374 81.6891L365.623 84.5229M362.456 86.9156C366.521 88.4831 376.957 90.0527 386.186 83.7915C385.671 79.8756 384.339 69.7595 383.737 65.1909C381.497 66.5925 375.161 69.3743 367.742 69.2886M362.456 86.9156L361.941 82.9997M362.456 86.9156L364.103 85.6719M364.103 85.6719L363.719 82.7564M364.103 85.6719L365.623 84.5229M365.623 84.5229L365.364 82.5491" stroke="#BB0F03" stroke-width="2.5"/>
<path d="M313.961 148.096L314.606 152.991M319.148 187.494L317.184 172.57M314.606 152.991C317.83 150.685 326.973 146.449 337.753 147.951C337.926 149.266 338.208 151.408 338.526 153.825M314.606 152.991L317.184 172.57M340.159 166.226C336.078 166.21 325.77 167.456 317.184 172.57M340.159 166.226C339.773 163.3 339.092 158.128 338.526 153.825M340.159 166.226L336.408 169.06M333.241 171.452C337.305 173.02 347.741 174.589 356.97 168.328C356.455 164.412 355.123 154.296 354.521 149.728C352.281 151.129 345.945 153.911 338.526 153.825M333.241 171.452L332.725 167.536M333.241 171.452L334.887 170.209M334.887 170.209L334.503 167.293M334.887 170.209L336.408 169.06M336.408 169.06L336.148 167.086" stroke="#BB0F03" stroke-width="2.5"/>
<path d="M284.746 232.632L285.39 237.527M289.932 272.03L287.968 257.107M285.39 237.527C288.614 235.222 297.757 230.986 308.537 232.488C308.71 233.803 308.992 235.945 309.31 238.362M285.39 237.527L287.968 257.107M310.943 250.762C306.862 250.746 296.554 251.993 287.968 257.107M310.943 250.762C310.558 247.837 309.877 242.664 309.31 238.362M310.943 250.762L307.192 253.596M304.025 255.989C308.089 257.556 318.525 259.126 327.754 252.865C327.239 248.949 325.907 238.833 325.306 234.264C323.065 235.666 316.729 238.448 309.31 238.362M304.025 255.989L303.509 252.073M304.025 255.989L305.671 254.745M305.671 254.745L305.287 251.83M305.671 254.745L307.192 253.596M307.192 253.596L306.932 251.622" stroke="#BB0F03" stroke-width="2.5"/>
<path d="M255.53 317.169L256.174 322.064M260.717 356.567L258.752 341.643M256.174 322.064C259.398 319.758 268.541 315.522 279.321 317.025C279.494 318.339 279.776 320.482 280.094 322.899M256.174 322.064L258.752 341.643M281.727 335.299C277.646 335.283 267.338 336.529 258.752 341.643M281.727 335.299C281.342 332.374 280.661 327.201 280.094 322.899M281.727 335.299L277.976 338.133M274.809 340.525C278.873 342.093 289.31 343.663 298.539 337.401C298.023 333.485 296.691 323.369 296.09 318.801C293.849 320.202 287.513 322.984 280.094 322.899M274.809 340.525L274.293 336.61M274.809 340.525L276.455 339.282M276.455 339.282L276.071 336.366M276.455 339.282L277.976 338.133M277.976 338.133L277.716 336.159" stroke="#BB0F03" stroke-width="2.5"/>
<path d="M226.314 401.706L226.959 406.6M231.501 441.104L229.537 426.18M226.959 406.6C230.183 404.295 239.326 400.059 250.106 401.561C250.279 402.876 250.561 405.018 250.879 407.435M226.959 406.6L229.537 426.18M252.512 419.836C248.431 419.819 238.123 421.066 229.537 426.18M252.512 419.836C252.126 416.91 251.445 411.737 250.879 407.435M252.512 419.836L248.761 422.669M245.594 425.062C249.658 426.63 260.094 428.199 269.323 421.938C268.808 418.022 267.476 407.906 266.874 403.337C264.634 404.739 258.298 407.521 250.879 407.435M245.594 425.062L245.078 421.146M245.594 425.062L247.24 423.818M247.24 423.818L246.856 420.903M247.24 423.818L248.761 422.669M248.761 422.669L248.501 420.696" stroke="#BB0F03" stroke-width="2.5"/>
<path d="M400.165 128.678L400.809 133.573M405.351 168.076L403.387 153.153M400.809 133.573C404.033 131.267 413.176 127.031 423.956 128.534C424.129 129.848 424.411 131.991 424.729 134.408M400.809 133.573L403.387 153.153M426.362 146.808C422.281 146.792 411.973 148.038 403.387 153.153M426.362 146.808C425.977 143.883 425.296 138.71 424.729 134.408M426.362 146.808L422.611 149.642M419.444 152.035C423.508 153.602 433.944 155.172 443.173 148.91C442.658 144.995 441.326 134.878 440.725 130.31C438.484 131.711 432.148 134.493 424.729 134.408M419.444 152.035L418.928 148.119M419.444 152.035L421.09 150.791M421.09 150.791L420.706 147.875M421.09 150.791L422.611 149.642M422.611 149.642L422.351 147.668" stroke="#BB0F03" stroke-width="2.5"/>
<path d="M370.949 213.215L371.593 218.11M376.136 252.613L374.171 237.689M371.593 218.11C374.817 215.804 383.96 211.568 394.74 213.07C394.913 214.385 395.195 216.527 395.513 218.944M371.593 218.11L374.171 237.689M397.146 231.345C393.065 231.329 382.757 232.575 374.171 237.689M397.146 231.345C396.761 228.419 396.08 223.246 395.513 218.944M397.146 231.345L393.395 234.178M390.228 236.571C394.292 238.139 404.729 239.708 413.958 233.447C413.442 229.531 412.11 219.415 411.509 214.846C409.268 216.248 402.932 219.03 395.513 218.944M390.228 236.571L389.712 232.655M390.228 236.571L391.874 235.327M391.874 235.327L391.49 232.412M391.874 235.327L393.395 234.178M393.395 234.178L393.135 232.205" stroke="#BB0F03" stroke-width="2.5"/>
<path d="M341.733 297.751L342.377 302.646M346.92 337.149L344.955 322.226M342.377 302.646C345.601 300.34 354.744 296.105 365.524 297.607C365.697 298.922 365.979 301.064 366.297 303.481M342.377 302.646L344.955 322.226M367.93 315.881C363.849 315.865 353.541 317.112 344.955 322.226M367.93 315.881C367.545 312.956 366.864 307.783 366.297 303.481M367.93 315.881L364.179 318.715M361.012 321.108C365.077 322.675 375.513 324.245 384.742 317.984C384.226 314.068 382.894 303.952 382.293 299.383C380.052 300.785 373.716 303.566 366.297 303.481M361.012 321.108L360.497 317.192M361.012 321.108L362.658 319.864M362.658 319.864L362.274 316.949M362.658 319.864L364.179 318.715M364.179 318.715L363.919 316.741" stroke="#BB0F03" stroke-width="2.5"/>
<path d="M312.517 382.288L313.162 387.183M317.704 421.686L315.739 406.762M313.162 387.183C316.385 384.877 325.528 380.641 336.308 382.144C336.481 383.458 336.763 385.6 337.082 388.017M313.162 387.183L315.739 406.762M338.714 400.418C334.633 400.402 324.325 401.648 315.739 406.762M338.714 400.418C338.329 397.493 337.648 392.32 337.082 388.017M338.714 400.418L334.963 403.252M331.796 405.644C335.861 407.212 346.297 408.781 355.526 402.52C355.01 398.604 353.679 388.488 353.077 383.92C350.836 385.321 344.501 388.103 337.082 388.017M331.796 405.644L331.281 401.728M331.796 405.644L333.442 404.401M333.442 404.401L333.059 401.485M333.442 404.401L334.963 403.252M334.963 403.252L334.703 401.278" stroke="#BB0F03" stroke-width="2.5"/>
</g>
</g>
<defs>
<clipPath id="clip0_3326_7980">
<rect width="400" height="400" fill="white"/>
</clipPath>
</defs>
</svg>
