<svg width="400" height="400" viewBox="0 0 400 400" fill="none" xmlns="http://www.w3.org/2000/svg" xmlns:xlink="http://www.w3.org/1999/xlink">
<g clip-path="url(#clip0_3309_7108)">
<rect x="-76.075" y="-0.568909" width="495.067" height="469.776" transform="rotate(-7.5 -76.075 -0.568909)" fill="url(#pattern0_3309_7108)" fill-opacity="0.15"/>
</g>
<defs>
<clipPath id="clip0_3309_7108">
<rect width="400" height="400" fill="white"/>
</clipPath>
<pattern id="pattern0_3309_7108" patternUnits="userSpaceOnUse" patternTransform="matrix(96 0 0 168 147.459 210.319)" preserveAspectRatio="none" viewBox="0 0 48 84" width="1" height="1">
<use xlink:href="#pattern0_3309_7108_inner" transform="translate(-48 0)"/>
<g id="pattern0_3309_7108_inner">
<path d="M9.95896 15.0483C9.95896 12.8715 8.19439 11.107 6.01769 11.107C4.43905 11.107 3.0772 12.0351 2.448 13.3754M9.95896 15.0483C9.95896 17.225 8.19439 18.9895 6.01769 18.9895C3.84098 18.9895 2.07642 17.225 2.07642 15.0483C2.07642 14.4502 2.20963 13.8832 2.448 13.3754M9.95896 15.0483V12.0923M2.448 13.3754C2.96067 12.2439 4.39233 9.27711 6.01769 6.46191C7.64304 3.64672 9.95896 5.19508 9.95896 6.46191V9.84015M9.95896 9.84015V10.9662V12.0923M9.95896 9.84015H14.041M9.95896 12.0923H14.041M14.041 15.0483C14.041 12.8715 15.8056 11.107 17.9823 11.107C19.5609 11.107 20.9227 12.0351 21.5519 13.3754M14.041 15.0483C14.041 17.225 15.8056 18.9895 17.9823 18.9895C20.159 18.9895 21.9235 17.225 21.9235 15.0483C21.9235 14.4502 21.7903 13.8832 21.5519 13.3754M14.041 15.0483V12.0923M21.5519 13.3754C21.0393 12.2439 19.6076 9.27711 17.9823 6.46191C16.3569 3.64672 14.041 5.19508 14.041 6.46191V9.84015M14.041 9.84015V10.9662V12.0923M7.98832 15.0483C7.98832 13.9599 7.10604 13.0776 6.01769 13.0776C4.92933 13.0776 4.04705 13.9599 4.04705 15.0483C4.04705 16.1366 4.92933 17.0189 6.01769 17.0189C7.10604 17.0189 7.98832 16.1366 7.98832 15.0483ZM16.0116 15.0483C16.0116 13.9599 16.8939 13.0776 17.9823 13.0776C19.0706 13.0776 19.9529 13.9599 19.9529 15.0483C19.9529 16.1366 19.0706 17.0189 17.9823 17.0189C16.8939 17.0189 16.0116 16.1366 16.0116 15.0483Z" stroke="#1B1B1B" stroke-width="1.245"/>
</g>
<use xlink:href="#pattern0_3309_7108_inner" transform="translate(-24 42)"/>
<use xlink:href="#pattern0_3309_7108_inner" transform="translate(24 42)"/>
</pattern></defs>
</svg>
