<svg width="74" height="55" viewBox="0 0 74 55" fill="none" xmlns="http://www.w3.org/2000/svg">
<path d="M29.8014 38.9129C29.8014 31.1995 23.5779 24.9466 15.9007 24.9466C10.3329 24.9466 5.52971 28.2355 3.31057 32.9851M29.8014 38.9129C29.8014 46.6262 23.5779 52.8791 15.9007 52.8791C8.22356 52.8791 2 46.6262 2 38.9129C2 36.7936 2.46984 34.7845 3.31057 32.9851M29.8014 38.9129V28.4382M3.31057 32.9851C5.11872 28.9755 10.1682 18.4623 15.9007 8.48644C21.6333 -1.48944 29.8014 3.9973 29.8014 8.48644V20.4575M29.8014 20.4575V24.4478V28.4382M29.8014 20.4575H44.1986M29.8014 28.4382H44.1986M44.1986 38.9129C44.1986 31.1995 50.4221 24.9466 58.0993 24.9466C63.6671 24.9466 68.4703 28.2355 70.6894 32.9851M44.1986 38.9129C44.1986 46.6262 50.4221 52.8791 58.0993 52.8791C65.7764 52.8791 72 46.6262 72 38.9129C72 36.7936 71.5302 34.7845 70.6894 32.9851M44.1986 38.9129V28.4382M70.6894 32.9851C68.8813 28.9755 63.8318 18.4623 58.0993 8.48644C52.3667 -1.48944 44.1986 3.9973 44.1986 8.48644V20.4575M44.1986 20.4575V24.4478V28.4382M22.8511 38.9129C22.8511 35.0562 19.7393 31.9298 15.9007 31.9298C12.0621 31.9298 8.95035 35.0562 8.95035 38.9129C8.95035 42.7695 12.0621 45.896 15.9007 45.896C19.7393 45.896 22.8511 42.7695 22.8511 38.9129ZM51.1489 38.9129C51.1489 35.0562 54.2607 31.9298 58.0993 31.9298C61.9379 31.9298 65.0496 35.0562 65.0496 38.9129C65.0496 42.7695 61.9379 45.896 58.0993 45.896C54.2607 45.896 51.1489 42.7695 51.1489 38.9129Z" stroke="black" stroke-width="4"/>
</svg>
