<svg width="74" height="72" viewBox="0 0 74 72" fill="none" xmlns="http://www.w3.org/2000/svg">
<path d="M2 0V8.64M2 72V43.2M2 8.64C8.12022 5.376 24.9508 0.1152 43.3115 5.184C43.3115 7.50453 43.3115 11.2858 43.3115 15.552M2 8.64V43.2M43.3115 37.44C36.235 36.48 18.0656 36.288 2 43.2M43.3115 37.44C43.3115 32.2767 43.3115 23.1461 43.3115 15.552M43.3115 37.44L36.1562 41.5M30.1148 44.928C36.8087 48.576 54.5574 53.6832 72 44.928C72 38.016 72 20.16 72 12.096C67.7923 14.016 56.1639 17.3952 43.3115 15.552M30.1148 44.928V38.016M30.1148 44.928L33.255 43.1462M33.255 43.1462V38M33.255 43.1462L36.1562 41.5M36.1562 41.5V38.016" stroke="black" stroke-width="4"/>
</svg>
